<mxfile host="65bd71144e" pages="2">
    <diagram id="Y8a4FJOislnl8Gx8q6WQ" name="EAD-Architecture">
        <mxGraphModel dx="1911" dy="2038" grid="1" gridSize="10" guides="1" tooltips="1" connect="1" arrows="1" fold="1" page="1" pageScale="1" pageWidth="827" pageHeight="1169" math="0" shadow="0">
            <root>
                <mxCell id="0"/>
                <mxCell id="1" parent="0"/>
                <mxCell id="DSgFrJyKgC6jByb_c58T-63" value="" style="rounded=0;whiteSpace=wrap;html=1;fontSize=12;strokeWidth=1;align=center;fillColor=#f5f5f5;fontColor=#333333;strokeColor=#666666;" parent="1" vertex="1">
                    <mxGeometry x="-290" y="-210" width="1340" height="1090" as="geometry"/>
                </mxCell>
                <mxCell id="DSgFrJyKgC6jByb_c58T-70" value="" style="rounded=0;whiteSpace=wrap;html=1;fontFamily=Verdana;fontSize=21;strokeWidth=1;align=left;strokeColor=#7EA6E0;" parent="1" vertex="1">
                    <mxGeometry x="-270" y="-126.88" width="1270" height="116.88" as="geometry"/>
                </mxCell>
                <mxCell id="DSgFrJyKgC6jByb_c58T-69" value="" style="rounded=0;whiteSpace=wrap;html=1;fontFamily=Verdana;fontSize=21;strokeColor=#6c8ebf;strokeWidth=1;fillColor=#E5EEFC;align=left;" parent="1" vertex="1">
                    <mxGeometry x="-270" y="10" width="120" height="830" as="geometry"/>
                </mxCell>
                <mxCell id="DSgFrJyKgC6jByb_c58T-68" value="" style="rounded=0;whiteSpace=wrap;html=1;fontFamily=Verdana;fontSize=21;strokeWidth=1;align=left;strokeColor=#666666;fontStyle=0" parent="1" vertex="1">
                    <mxGeometry x="-102.5" y="10" width="1102.5" height="830" as="geometry"/>
                </mxCell>
                <mxCell id="DSgFrJyKgC6jByb_c58T-24" value="" style="rounded=0;whiteSpace=wrap;html=1;fontSize=13;strokeWidth=1.5;dashed=1;dashPattern=1 1;fillColor=none;strokeColor=#999999;" parent="1" vertex="1">
                    <mxGeometry x="2" y="195" width="768" height="375" as="geometry"/>
                </mxCell>
                <mxCell id="AP62TqUH0sliwpTxDApQ-1" value="" style="rounded=0;whiteSpace=wrap;html=1;fillColor=#f5f5f5;fontColor=#333333;strokeColor=#666666;" parent="1" vertex="1">
                    <mxGeometry x="-40" y="340" width="120" height="80" as="geometry"/>
                </mxCell>
                <mxCell id="AP62TqUH0sliwpTxDApQ-4" value="API&lt;br&gt;Gateway" style="text;html=1;strokeColor=none;fillColor=none;align=center;verticalAlign=middle;whiteSpace=wrap;rounded=0;" parent="1" vertex="1">
                    <mxGeometry x="-10" y="370" width="60" height="20" as="geometry"/>
                </mxCell>
                <mxCell id="AP62TqUH0sliwpTxDApQ-6" value="" style="rounded=0;whiteSpace=wrap;html=1;fillColor=#d5e8d4;strokeColor=#82b366;" parent="1" vertex="1">
                    <mxGeometry x="360" y="520" width="120" height="80" as="geometry"/>
                </mxCell>
                <mxCell id="AP62TqUH0sliwpTxDApQ-7" value="Course" style="text;html=1;strokeColor=none;fillColor=none;align=center;verticalAlign=middle;whiteSpace=wrap;rounded=0;" parent="1" vertex="1">
                    <mxGeometry x="390" y="550" width="60" height="20" as="geometry"/>
                </mxCell>
                <mxCell id="AP62TqUH0sliwpTxDApQ-8" value="" style="rounded=0;whiteSpace=wrap;html=1;fillColor=#d5e8d4;strokeColor=#82b366;" parent="1" vertex="1">
                    <mxGeometry x="360" y="160" width="120" height="80" as="geometry"/>
                </mxCell>
                <mxCell id="AP62TqUH0sliwpTxDApQ-9" value="AuthUser" style="text;html=1;strokeColor=none;fillColor=none;align=center;verticalAlign=middle;whiteSpace=wrap;rounded=0;" parent="1" vertex="1">
                    <mxGeometry x="390" y="190" width="60" height="20" as="geometry"/>
                </mxCell>
                <mxCell id="AP62TqUH0sliwpTxDApQ-16" value="" style="rounded=0;whiteSpace=wrap;html=1;fillColor=#d5e8d4;strokeColor=#82b366;" parent="1" vertex="1">
                    <mxGeometry x="700" y="160" width="120" height="80" as="geometry"/>
                </mxCell>
                <mxCell id="AP62TqUH0sliwpTxDApQ-17" value="Notification" style="text;html=1;strokeColor=none;fillColor=none;align=center;verticalAlign=middle;whiteSpace=wrap;rounded=0;" parent="1" vertex="1">
                    <mxGeometry x="730" y="190" width="60" height="20" as="geometry"/>
                </mxCell>
                <mxCell id="AP62TqUH0sliwpTxDApQ-28" value="Client&lt;br&gt;" style="shape=umlActor;verticalLabelPosition=bottom;verticalAlign=top;html=1;outlineConnect=0;" parent="1" vertex="1">
                    <mxGeometry x="-230" y="350" width="30" height="60" as="geometry"/>
                </mxCell>
                <mxCell id="AP62TqUH0sliwpTxDApQ-32" value="Microservices Architecture" style="text;html=1;strokeColor=none;fillColor=none;align=center;verticalAlign=middle;whiteSpace=wrap;rounded=0;fontStyle=1" parent="1" vertex="1">
                    <mxGeometry x="-102.5" y="30" width="185" height="20" as="geometry"/>
                </mxCell>
                <mxCell id="AP62TqUH0sliwpTxDApQ-34" value="" style="endArrow=classic;startArrow=classic;html=1;strokeColor=#4D4D4D;" parent="1" edge="1">
                    <mxGeometry width="50" height="50" relative="1" as="geometry">
                        <mxPoint x="-200" y="380" as="sourcePoint"/>
                        <mxPoint x="-40" y="380" as="targetPoint"/>
                    </mxGeometry>
                </mxCell>
                <mxCell id="AP62TqUH0sliwpTxDApQ-73" value="Client" style="text;html=1;strokeColor=none;fillColor=none;align=center;verticalAlign=middle;whiteSpace=wrap;rounded=0;" parent="1" vertex="1">
                    <mxGeometry x="-280" y="30" width="130" height="20" as="geometry"/>
                </mxCell>
                <mxCell id="AP62TqUH0sliwpTxDApQ-76" value="" style="shape=image;verticalLabelPosition=bottom;labelBackgroundColor=#ffffff;verticalAlign=top;aspect=fixed;imageAspect=0;image=data:image/png,iVBORw0KGgoAAAANSUhEUgAAAXAAAACJCAMAAAACLZNoAAAAxlBMVEX/////ZgCpta//XwD/YgClsqv/XAD/YACir6n/roj/eyn/wKvh5eO8xcD/j1n/9O3/18r/sIb/dSP/vp//uJT/yrj/s5j/w6T/vJr/7eT/cBj/VgD/eCD/kl6zvrj/i1L/4s7/nmrw8vHW3NnFzcn/+Pbt7+7/bAD/59v/mnPQ1tP/yq7/h0H/fjH/3Mr/0bn/p33/mGH/1r7/q4H/jk7/gz3/sY7/5+D/oXH/q43/gTH/hUn/cyv/cB//38X/lGf/oH3/mFlY9BdfAAAOlklEQVR4nO2c/VvayhLHCVmyaMHUl3MsoIgYhCOCYsWrtb09/f//qZudzWZnX5LwWnufZ74/tBKXBT+ZzM7MTlKrkUgkEolEIpFIJBKJRCKRSCQSiUQikUgkEolEIpFIJBKJRCKRSCQSiUQikUikj9Yg06Tg+OAjvtT/q1p37X6/0e8nN7cFI+JuFEpFC+P4D/9xv866F1iHz4+fnuJNvvDncfr2zgqf9q1i+vib+CLj89U+tt6XuqsaOMwG9lueX94mjUajLpX+cOOd4VMUKPWe0PHHguN+HUTMFA9DPjutIufqcy99c9XbjtNP61YMirvia0RfVvvYZkapXjXwJgPacGkO2wq2Yu5FjoAb3+6S6ePVZnIQBq5YyK/XRf5ZfJ1K4GFQDfxE/AHhesDrzSJHoNRXMB0Lv7Fww6i2OwMCHu4YeCrOTyvfa+iDgTcqfMow9xi28SY574b2K/VGf2hPsUPgrCcVpeLq7dH1Cn+v1gcDr/fLx7Vy4JaFK97Nevvu5uYu6TezAw7x3QFnRyNQPBg8nR+884htQPyjgTcdizTUzk3XtPA7ibeZ5C5peFfgVXYJ3DgUny/l1NE6XmV3wMciyuo5wOOBb7QAnhQshlgNcDsN28Kl4Tf6xgqQLaK2l9ob8FTTACYJ1wgQdwZ8dPaS6nhuHZ53X3yjU+CNBMzUs8xpAdi++Nc4McOCFTLzM+ZCvE/gtUkXruvXyvfn2hlwv15YdOY7LoC3bxtVPiUBi23ZFi7Bek6VtHFzXdgr8NoEZolGlRMo7Rd46uTCYuDSYfgyGiUZOdoWfisN2TN+2HcX2P0Cr52K6aNp5QRK+wXOg1LgSYGhKkmyNdvC2/7AXKjlmviegdfEBHx1n7Jf4KwcuMRT/HZw8knNsvBhkUMRck/GvoF/Ta2KXVROoPShwKt8SgbPsnA4DY2CFFWewwQd2TfwKfiUygmUPhZ4u2HRMTQUwWOjZlt4vzRh6tv+fd/AB2L+XuUESh8L/KbUp9xkYaNp4eDYi8P3O/uq2TfwTk8At2vthfpY4OCOCwtY/YysCVwmmYXB5ND2Kb8H+Mp0Pha4ZFpUwBIepVmzXUq5R3F/Ty5FSAEHr1FAL/+dYeGQZTYK/b5MlvAV8CGL5qgzPf5H6Hg6MZMiDDx++JoO+epuHWHg8VQMOn5aKbcKqoCDA2j4/UNb+WrDwm+bFdnSjeXE9w0cftM1DnUOllEUcqEwimZnmJUG3nkNYFAYjR8t5Br4RA3qdQ+sQfHi6updZVwP71epjtK52fcrpXf9dynguZ/2KE/8DQuX62zJvoU8I9pN7Rv4RToPx7uiowMW6rnTt0VdtIWXA58Gek8jDMxUNQd+zkI0zYMxKO5ylhcqz3uw8QcDc0XH+eAceHEBq5V7G8PCk6K0XklWtvSUGDiuo+4I+ECsmbhA28mKtoxxLgmkrPQHKOBncFLSQXJI7yueVAH/GgVoEOsZ3kIUxPO/6Fz/lVqhB/htoU9JckM1LLxdkZ06q2aRhV9p4GF1QbsQ+LOYpqev9viQiyk5+7FcvD7PAmnsvbyKmgGfhjDo+6/FMuAO8Qw41Gk4my0WMyYHYeIm8B54MDgvXAnNmQOvFRbF63nEaFh4v6L+4pwSBJwttTedoKueLcvmAxUBPxcGzu71gQX4AH6ZEe6cdwUF7eQl8Imw/fAIBk2u4S09dJkB8HggPjO8hhB/ciUHIa9iAJ8vrlO9wh9zrbTQjkoDTwp8CrhiiQ1buHQYJUGKE6Yg4AFffsn0MsZuVh/HmqLFrgD4PDTtt/YkeSOXPDoSh/J6IgCPFzxgQU5Y+oNIJ0/SwtNrkAU54TPpXtC1hIFnsi/jXBp4UQELtnmSfIiycBnWlAK/M5dVDDw1GCXT2+njSD1k+H7gD+BcQ7SpCY4qNNeEJUMXkQA+noojyFghtORX+WsB/Pt5+k+ANnSAONrr8AGvjMNreYXKVl8fNiy8WZrYC5UBX0+Rji58wOPrHpyssT40gQPv5rgOpEbZ5SKAd7+lqIy45JobF0oKPDiZsYAbHUqwXER5PrQp8MTrI1ThSghbeKu8kiJkBeLbAP8rn9QFPniVaxQfo/gYHEZkhm9pQJQOjOZohHlVpBqBiV+ql8fQlBGEB8YgOHHho3q5KfCWN9nE4SK28FblLpE9ZIfAMyDx5On0ddzjcswS5yNnabAQOp1sD5EOPSXwdEk0h7wIxHmwA8ADdmJll4/wkergpsBROIKEPIrHwkuB783C80agXpr8ycg44uYSNX1M9WJn4XHqesK/5c8SOIqQ9RAdzkvgTnowMJbfjYG3PQWsoSpcCWELtxN3j/YH3Pn9xYodKaEN3C1fwcqqfIp0KT+cGovoEeD/Zi82Bu7zKTc4WMQW/icBP/lv2dfASmNQA3hOVusUPiB7AcC529EFju0wu4DWBZ7zlPU/M9ls46XxTwXOovtB2RfRurCAe3b5ZZU3C8UBeGT3+GRRfpQZ/sYW7iuKGx0ray6av8GHp15cZtG91foK7y3gvoI4nIjMawNwT0G8A4FhFituDtzwHyDTy/wpi6Z2BKPJ9FXW8UI73PDKAs5mnjeJqmOYtakJ4HY0D+oGOpXcHPjQ2jLICld5sO1a+J8Qh49eoHuWH5Z9l0w28J+eMb/QgiiAe3tdxNIaZiWpzYG7RXHTq2MLr9hCFtoo04wyV8FXBl6rzaGVc5WbPizg/KtnjAiy1ScI4F5wC67PyhbA7aJ4Sxeu4KWT2pe28W8AnAVZoarziIlXAK/NYWpe9mXizmDyNJ+ZwL3l4E/iE2byZwHcyVftr7EF8FvLp0DhSkM1ildVW5ql1cIihbpQ9wUNrwJeezQyEVOd+en17IfciAjMONzL8lNkAvd2XrzsBriRV6qXOvc0NiCqy7Ntc09oBeD8Ub87/o52gqqAx1Drfna/w+RlFvCQoxKwAdwN+NL8X5y8sbzQYNH0ARfRuqrqbwM8MTqwhqZH8WxAlN6o0l8buJFDH60BXFY3nB6Jp3tzV9MG3vuP52vbwAMf8L8inflsA/zWCANRKRxkbrFV7WnKa8C7xbZ74HMogZgGO7mStJnYso9gNWYbAPda+K6Am06kbYXa5iZyeeOVu0WxV+A1bLxSD3KPkkXjn2fnT/NJHMcja9H0Ahe7nKwK+AsK0LcCniCjHtp7QOu1SdiR+n6B/+SWE5/CTj2LjnDnjlVLiXzA7UXT61IAeLYztBVwnFo6ied6jUBWVLhn4F9wzakmtnxgj21mehkbuC9K+TvUG3EQFvqAv3JUlt8GuEx1JCXbo1jNnFVxoe3k1wV+uRZwCMVRK+cVhICXVuoeWVGKL5DELMWucvTZM+iZ7STxqeGiuNv9ZjZztkvaEWuqTuBv5iyS8R3f1wJeM4t/UM5jS7tUYm1AONsPQiJr52/y52kU+LuTTlDBZTvgVp+V87uV25WdYssKwBmqh8xRPLcK8BlCIFPvgNlh9gBZ+JwXlEnwfcVwVjz5/yhAp3c74LqAlVjAbAuvqKbIPBMtqitlmgtlk4OTNYGDJ8gbgUTWxJ3dhVO04yP29X2FQNghVpXXCVobseYQ9mfOfTvgesvBKR3a9/iUpj6OR1mteBWe/HwVugxwwrIKcGjiYdmLzjjweeglisMhkx275VnofVP3e4p52Hd30BcUq28L/CbzJFC4MnFa9/g4N5Vg3Tn2v1q1MGvIM/PDVYAP8A0QAygf2kHfRAzJg3WxRkTuE3GOcLfQCBy6WwCY4Y3PLYErn5KYhSshy8JdI7ZnMS6QfdXDlXD9Ci55ZzsHluEc+KO31h1Dz0m+FojGINeJT+CzVDl4S+AqGrQKV0L2nchJsRdvu51w+wa+RKvm3Gfh0O+pgX8OPW0pWV9KHnqLMIV9t9stxHoRcHU+i3oL33zf0gMc8p1k6An67DuRMzP2ZJvZU4KMFWDfwOE3Wa4JnW5WPDeQ28858PiH8CnWIx9iCCd1Ey4sBlaLojRw3fvvA37BAu7bTvIBl6h1V7iW8zSJOw9XIcnbsv19A5+iVXP0A3ti0DxbhnXBBYroVuL+bvYWSp9iXwdLuH4G6qUP+DemF1VDHuD5462cu4ydp0nU+pK4tXDK82DPu2/gE3yfJrjrSLcEjuBGB9bFwKEznb9jmHCngxEsQh80NyLDhWngXuDiPHnzWB/wzG7d4qtj4epRWM02OjWt7CzYhr9v4JCxqD8y6/R+lTQ7X05ki/EzwyVFMPEQEX+V7W+G0UOXfrjIrXV0CSclKO8Ph3063w2HPuDZUzncQolr4fmzsJr95K6V6i6pq9OlH8p0Cz/uHfg90ytV3JWPCGJX//57eRiF2b7+vQF8BJtKvCv3UUfTE18nYQfuGAhPZJ1rdD6GACgqugNCvQtKleomrlifQh9w5VOcENu1cPT0MXioG3qsW3KTJO12OlWz2Wz/FuBQ5lPrndoS1XdUiXZmE3jm11k0vnx7uwzks8qcB/nIZn9RVn97u1KD8EnxAYfO6PRNh/+8vS1m3nt8kNST2uzjHgtPr4d+DtkQgl//PcAfoLc7/4utj4N2Zgt47SlbSZlKtXxP2HzIOnTzfIyZTfxe4HGQv4kz311sNti654Yfn4XXhM/3I6+bwKc9tqm4dobiUaihH3hHfIAOoa8jlK5yDvHfPWeRsS00meFRLOr6tpXnJ+agQzOySYEz94Fyky66/bMCuPQpTSdpF9l+05PnDO/q5czlJxxfHG4mvItwlk5yUdBIKOZHN60+dMMQzlf636s8Zb8uDu3O5vN0FM8eYntS9ASns7EeNLMHxffpV3JruKODIPt8hlyKeHyvu4mQwGN9nfC6VfSw39Sx3KTvKeLtezDqb9H85Vk8gPmg/P74+emv2cXF8vrToGzQ2a9DMWi68vNBUuRPB+nnX3z79ei7bkgkEolEIpFIJBKJRCKRSCQSiUQikUgkEolEIpFIJBKJRCKRSCQSiUQikUgkEom0O/0PlJ5DSUUlq2cAAAAASUVORK5CYII=;" parent="1" vertex="1">
                    <mxGeometry x="639" y="-89.84999999999998" width="58" height="21.59" as="geometry"/>
                </mxCell>
                <mxCell id="AP62TqUH0sliwpTxDApQ-87" value="" style="shape=image;verticalLabelPosition=bottom;labelBackgroundColor=#ffffff;verticalAlign=top;aspect=fixed;imageAspect=0;image=data:image/png,iVBORw0KGgoAAAANSUhEUgAAAMYAAADcCAMAAAAcCC6SAAAAllBMVEX///8xYZIAAAAaGhouX5ErXI8GBgb7+/v29vd2lrfW3+nw8/Y2ZZXv7+/p6elih6zf398kJCTPz89CQkIwMDDJ1eI8apjk6/ESEhKnp6cpKSmfn59Ic55/nLt1dXWysrI5OTlPeKKXr8i8vLy4ydpcgqmNjY3W1taiuM5TU1OPqsSDg4O/zt3b5OxlZWWEhIRdXV24uLgSL/kgAAAVB0lEQVR4nO1di3qiShJGuTSKyFVRUcA7iJLs+7/cVlUDooLJJJLJ7FLnfDOjIPbfXfeuagWho4466qijjjrqqKOOOuqoo4466qijjjrqqKOObknVx7rK/vYovkzMngeJY1nWDP6zXCc7bNW/OyDVPNpAY9YwqePtPE2DID34cA99wg5cpa8o/RtSFCuw/8a6qPrRz9zraGaWk85tYJLyDt2cJ7PqcBU3myd3468AUWaB/cOLMt6mbu1gnGBum3iHGSYNAybQ4sKNIsdxoihaWKKSI+kn4fgHQfjOzSzfvOjPnMC3fae8OLMWrrtYlAuzSLJDuD3m68aE4zE8pI47y+dh/lO8NXcUPvJZlL35YbjdbkP/8JY5ixKLxcc8iw6H7da2jyBAcNMhc5y30NbrHnqc8/VVZon9EyDUgM+blcKMatepY6A+j+FbdF0aZ37Ub5idabr+ZK6P/+FLaB1aG3xJOv8q5z9NN6jbTKSVeDIY77wZGOvpaDSdLo1VPCzBbrnEZW2L+tglngn5K6Zq3mU4mUyGF02rGDJAknHWUbXhLj4BxbuJp+WjU+OlhNTr4f+SJPf2pxwKO9BaJ+1Kuo4oZnyy2GWyMZZyTtJ0P4h3Q686j+owNqZySdLSiCcev7JZI4qCAIm8jy906UjqwzFbRKGiEp359O/JaY9Dk8qRwFDk6X5VjFQQdivAcDNYSZb2pzMhHZ5Gcq9Kkrw+DelLUlwQ99gejINSoPBWU0Ag9e4IBzrdn/GOy2AqP1zHG6ZGTOx33st31+T1hq74FuJobT1sfDxJ7nn5CKEg2dDgjt0N19wiGeVADfn+0sigpQxxPZJaxfx9UgNYDAfna9cEAYeyx5HsRo0wiVbIWerq8dNTYiwfcaTtGMIjPFsZf4RiOsE7mpaiIHlJwz2NHj4v7fACsW8rdpClYLuRpYZT/oX1A9zAHZOPUNBwGeF4lC/EwTJcjjbMhw6SYcFXa8azMSJLXaYfokAcJ5ShzcN0SFPEoeK3tWE9tvn8PGWYEQ7hQXQbcAwQx+lxOYgvU/i6FpQuLrO1BVX7dJAG3Bl/BgTRQEU5f3iehPoKZ23+ehgCCHgEqzx5hkKCefTWn2ApTvIKnuvtH+6X4TEmeGbp61GYoKbAC2GPk1dBsYYbT58FgeON4QPn6cPbJ0Y+aPZ6GD7AgEXWnomvvKud3Gc4dnXAZUMV1AyCwddbDhANEURj+GwxpgwN3x+g6PXI3N0jl9aw7G9ga1+OQnC4u7Z5AkM+wWoNPqWmroSuy/DuPWkKbx7agMFAjzsg4c+MBkrmp2zGDaG9vJucHIbSwmqAd5DAX8vmUUpr0JO7P1yMnoRuiXb7WILhtyHiugKKCv5+thhgBtQ/5SlkRbAe8c3HpCVnqtfDMGE1AtBDj6MsgaH2rFdkT/lM6g1Rv1UfLK01EHGlBbtxhNV4A9ZvnmxpNHmuyJpIHsDzN1WoqHBZ0IYVRxiHp8OU1sN75vgcSRJE4cOqdCB7aqDhX++p5zCeuCLkCT2z8U0gJPRJ2KAKI7fir49jzQ9XQ8aILvenpDyB8yEEWZ5Ol9MRCnnFbKKUjd02HPVPwADjJ5A0j6b71WlzMqYfGfR9PCzdjUnFsyLXUOk7r4/GVS7i9zCqMx6jIpOme56nQdoZz4AYk+oXeOvrQ9FD2Sr9oIVgHPz0t1qFWxBGTMPp4Fz9brXZ3ZVOeYia7/BcKjAwhATr57cAw+XWqJnhMfb08glml+GEpzNPDbgp1BAuu9NqMFitdgjjaoAwnMr6ShsphaSvoDPS4DJJwAnn/E51N9ivQXL3GxgNq/fbyd1gm+VovR7JMmK6LK8X0c1atJM4RIdTf+IaSku+Et5qORpJ0tLY9ySc1XoVjbqInaSTp6qaAQyGhuMKERZHbynfBrGxazczCXfxBC3P2KDWEnZTHGxdTMstHjnpaDEwp7MrNRXZ0bCVEBb0OA+bGj1YgnFZ8sujmD6zwXHWAZeWHlr80U5lWgxrh/b/CsPgotFGQoFUVfjEqSKmKuIGaY9L4xnTSz1wea9hVC9Jg5MBZlLWbiJZXMqWRANlHHOGalNYRCIel/sE+/gcG5JM3uLjJzBdje4HbibgR+Hxq/IufNCxlQgWCf1/+PL7dP4Vxq4689JoClKCkuzVRFoSX43yFUzPVXeseejXimgIgs3zVI0yjjDOdxdRk9bl53LZKF4ZeFcJA/32qKVENKlA8fhExtGK32tXyWB1aUGuqUrMZDZK+4LPMWeK1Q4KQXWVPmZ4rp7rLbOQM3IPYwrxT10yRT6j55I/AJ3KYamXUVAOCoaarRCGY4cnuc3a1ZC0+lAKR15yG0pQCUNCnkra8USI5pTGa0xE1cHoyZgsqbN/lCYtYFRXQwZVfRT7bfEUyLiiiGpzwq0eBgzqXJdSkFE4cq5CGIVsoNZCnmqvUsEE4TBxy6yeq6a1MMBwnOv2AeXNdcMHcwpF6pfSK4nSb2n/EkiFIN+vCuMN3dmNYrQgypM6GGTyNjyqqihcqYdbGyJl9toinxKHXr2TS3tED9KMq1ELg7b4cudcWqKDSB+VV4x4atsijO2sLwp121x8LMMauWlkKr4xNeD/HAm5MyLhPo/u9K32eAqFg7bj4odtFYKxvtTkd1CSG/afcfUunKtQn5FrKOfbZYdWa8O4d3gNcG5ggJv0GFSRwq3xDZHQQPDsFDnqiEhCBz9rzRHJCZg2gr/2vZq0LMrpQ74drXhTJpG40OP/PPOwSdpfKLBpuZ7KtvozmPPHGokCxj27yQ0+Ff8ExhVkAsvoD98J+rN2AqaSmNtXwro9x4JH7tNS8oY1bwZSsOqhCURewofi+ugKbQe1Shlledi0iakeVoPEuCkLgalaYjmEgauBMxFQdrJdCpW+y+rTI3Wy8cH+k4QxLu5s5EyFL8diu9qWiM14XqFufjHVN7i9QNP9ZP+JdjbiQsQlzMAFrYV9VUook6vWTS0y9u3MU3juPcusS7TRJKFa3oxGoD3MRX/2AxXeYZ/23Ou4CpM66u1OpNEQbVzvQH82HlFKAZ1F4a3fom9bIaW/sCuzLl2FndwhrlylK7CmbGnxIZAKdU0RO5qYIyzGT6BAQ+7Xp3lIf96opc9sMGP4tBliRItlF2/tVO080lbBNE/t5hjVsWwqooDGbP0cBWdFuC9GBoTFcH+m90G1FMyP1CWYSX9q13TOCCO/DytI9jRuz8DFyCgx+RPEUvqqWtNM+rO8QuI7+AhFnu7dDRhlwtqqWn0g/K6GrA1nqyI0RdOMW0gf7GSSSAkx/uH2Z22GSzc0dvp9LHKrL0egrZp4OsKNWO92e7WJZCo5FHiRCO9/Yqqu27bZppiwA20CNtR/jmivRtsY6ylFdw2hxi0OXuxtzsCAY7/Xdp4m1DWVtFlvD966yBomuthyAnaaoL+02tcVqt99RkbVILBqo5Eyo/4Hp8UgENsGwvrsIS89vUop87xhPH1uOaTeaoJcpQYL3mm0cLD3KTxgM0ubUeB81neF2sJsrMURjlFyozWHTVsJnEabfMrVMbUQHk2dywp4032/RRg6D568++BCIgEfR8ATYnIISwGt1wYFGXSP9vg1x6hlKwKmIxIeEj0S5QN03qDIqza1zQnbB56VtGJBAtsseyevlAOmUn/R0W2j9qVC41l/Fj6WgGFwoQW5oOLmszaQ5anXlErhtBQwRSVJ8sjY7CaTyTneDIwVggf967aJAmMbmuwbt49XnL/lqibC/UdcLrTsanNpLsaM2pr+VfZArUkBbxetu4k6Xw5W2Q7j3ScchRIdkBtiMuAYSzSXi95t7F9btRBFCxU8t3Tg3s+1WpU28wTsdnMz36bMBm+oIc/qOYxL2Y3W25/yBi9Ut+17Jthdgcqw2CSQRjiF4WxxMIv2P151wC88gYEhnwcCcdrEu0vR1DkmPdFSU1CVIJidIeNschRo9uxFWXDKhkblwjMYu4dHM/2AbcBK9gM9vjqYcoe6YaagZpbcYPDKeO8y2exlSgbyC09hTG6fq43tN+q7/hEUvHmOUq2TlUHlbFpGbHY5UeMliet0kNe5PdFUIArm1j6OTfNoYw9z1M/be3+o3xp7wTIyvty5zsjxFS4bY4kVUvKo6Ld8CqMHH34TFxHSQiycw1n2I83WNG5gK6V0pTEK6Yv0SqNm38mFt8fq2TMYtHWWcLN/bdD2jz94rIKKbb7iARdEI3e0ryweim5CUXwKA9Sx5vQVq2iXT9LtT5/ZofJ2+4hinBmf02BcGYO6hTVaPIUBNt6M+i5TQTjGz3ri28RxPafCtYsXzhtI7NE8HsOADiV4CgN3xO1Fq/uun6H8bAgrA7vN5olViKiI0qooeKbCU6bCHMRWVNqqD/kssXF4SFM/1yvM9vMomoNJ5ofZBzAm1I7cZnT0WbphaKab9tZPsyxLQ3Ct5hxGo/nDjVr/x3Jsf0gMAx9CBzAwtdwMg5FX/GNW4ov0AQw0G1jf9INHvXyJgO8VoRmGbJB3pvzd85A+pi3AwF2dJp5aoUep/FAW/eu0nSk41Y0wNrQZ0ELP6GsJ/GBFb86r416TPWulT+OlhDDMhrKGHq9927bTp/FSOlpU+/iYYOSKCiPc8LeajQqNAca2rGJ7gLH2qBH5t5uNIk/asM2BlepqxoP6X03MpQxKQw85tthp4Kb/dutHXeZvt81wVRgxZe5aPsXpBYSRboYJtXrZ2NERDcFvt36CkCnYh8HqqxOxysRvs3L4ZXRQKPxb18LA+siMdMBvp1ChfEltzSslPsW+9ev1Lda198UQuyUaeGrbb78k7wXEZrx5s85Vx5ISp99ao8ZLCewftow9djZLWCyyVX6wMOE7FPDDYh5aoqj6WHCUVve+X0c2ZkjGVNVwbSaSelNq03xT2mpSfDlZ/b6IQ/XwZD2JDmOc7k+0MeaL/b+eafsshZhTRNPAditjv94bq5iqEgSVttj+ATVFhM0rfYuzjne5XIr97xATjlaLhzC+mI50TGh2u6saOljb4vw7KPJTHfviW8E/epjxDZnsX+EoTnae13WTIMiS/PBfxf0nDEaV9KDIted56pmV/QMO4SMdD45VQkjS+a+PW5tIt7e+fzj4c/s4/icMdzM1HRrfUUcdddRRRx111FFH/zPEcvr8hd9HTBvSUXqD1WZy88sdAl4YGAZdYNc3vd+ISov3lEWkncHlqjzVUfBiqmsY8Qun4pTBuLf0Gh71F0kb4ODj3fm8i08AaBnnF84AYjmoXDjxQtk/hcH0cU7muLWqfbbp9VYFKzEvHuVtamy37PU2Q624gC+pqeKPYdjuwiopaqkWQlv2jOqoAIeB3zSB6Z9Uv1KDxVlpX4GxEBNOjrMQxaSNrVI2pMNOK2+s8UgIpo16y7vCdQY4YvYlGNeR+674mQ0h+/iHYHe93vnmjRP1xw6KQxErpK0RwFdgVPKSczH6xC6jG/1Z7ontclkoabcEIR+O8t6z20u4HN+EIbjWJypM3T/9qaXJHVMJ2mTiCSv+Ex53BOKx/O5qsHfxEzvw0R+uBp5bY9y0+6FYsz31nt0TajXvu6sBMLjmYHdV5Grlp9cqq8H0ezFRa+RGBbNh3A9ruO4N6hTjbgRL900YjuhjAXTgiqK4yPIfe9R9x4LX1jsmxu00sBZBEOgCM1O8zQ1MYR7YgpqmwtYRqW9gnOInoqCASx1me7AQFcfpvOSHt94RG+L734NxFF2bsbloOUEaJAsxwGumIzrBYe5noMeYEEauJbqRpcNtYpSl6ftiYQdiyHTR3YoLx3EENres5OAf3i2x6L0aGtQqNzJOOy+3gzTrNUSr9AUYV+N9dMSMCb4YUSqfmYEYqAI70GBgHk1cK/BEgangVSi6Pr0Pa/duAQxr4byjngN8jo3sz+ykxCFMToM17/pbr3bYVgowaiQcjzboDb6yGgef0yGIxMRkR3dR1NOr7+KW6Zll5mPZirSbSiKuLqxig5hl4iIUdEt0aJ5N1817ZNjYsa47NGx4jk8DgrI+aaxpNb4K40ruAQaciteTcbaLRNDfrYLF1ZS8FRLxUHwvbxsDDFiNXFn7lQfY4m3JKtO8SYxFrgMNHKhN3YiAqVZfgYG/cIlkm6idQOde1anuiCowVVLsP3IJpdUIqqrZsXA1OFyWVQp19OiuoA2ewFSU+BP8saob0QTgfUfh8vhrnIiV+XMAk5nAOr2nc7voRKLVeLcqe2EBwlgs+GOcRTpHJqU/Iuz8fQjswMkyYNbXdSNCz+W7dgP10qLypQkemKLOM8dFlevMSR3QaqBU38KweLM0i0T3ShGspDcY3AszmOrhAO3cw4DYqdfTvg9j7FR8RYCRc9jYnqdZJFKxIK1GIFbclqQKwwG/jJUEKguM+D37rMC3BRmvMRykb78P41Y2IgsUaqmRIThBxUOr4VecYdUiEc9hBFXtZIPSYHkwdAeDLXvLoXBPG/SGvw9DOFQUTWi9A5elJQ6+BLQauhiVhQcpV7h5B35YEf6thYZj/zBeo7ceohTcw2Pg9sJ7L4BhumV5h/4u2sx0o/KOjOSau4agwPJ9Vl90qzDGzrW30SHjEvfu3CePA1jlv814JVBfeMLNC2AwX+T2j43fURbUQMzLZ5ktklPoEBg1E/HnfI8hmOqqiAtsa7lc5YL5pIZsPHvgVMEBMR4GTAxjvcFddEvx4Jdg3KsLH+xx6qfvIh8/KFw38OfzQwJeCt7rg86KwDX0I/IYozlqKqYvymMdQldMQN8GlpX3UIMt6K13nqYxVdO887pYHW0w6o1Ow+J9zPXQ6fIII97d0lNYZho8JESYHTiRGznBlrfI6f47vo6SlDsZzM8SfiyTHc63yEC4GujhFg8wU/iA62SlrE/wV0ZGxmC1GqCTuCx4iW2wbncN76/w/dEeluPMg457qnXArmOufVc1j6Zeuaabpnm3als7P9MI/kgW97EvM4/H6gO03WqfnwexNE6VyNyLB2tenj9aD2IvBvW1Udl5cE+rR6X2FXrIsTpliRT46NHjkj583htOzrvdeTL0bu/T6P3deeih2oIwZASqSruSiv+rWv18f5sqTtW7+JlzFj8aRz5Pw/3uB9O3bLwQU1RyGFW8tDT1Z3PQzHYwDIwWovXr+8eek+2nQZDO/60CvBr6t1eho4466qijjjrqqKOOOuqoo446+j+j/wLgcJ3aPXywmgAAAABJRU5ErkJggg==;" parent="1" vertex="1">
                    <mxGeometry x="483" y="264.99999999999994" width="28" height="31.11" as="geometry"/>
                </mxCell>
                <mxCell id="AP62TqUH0sliwpTxDApQ-91" value="" style="shape=image;verticalLabelPosition=bottom;labelBackgroundColor=#ffffff;verticalAlign=top;aspect=fixed;imageAspect=0;image=https://pbs.twimg.com/profile_images/1235868806079057921/fTL08u_H_400x400.png;" parent="1" vertex="1">
                    <mxGeometry x="450" y="210" width="30" height="30" as="geometry"/>
                </mxCell>
                <mxCell id="AP62TqUH0sliwpTxDApQ-94" value="" style="shape=image;verticalLabelPosition=bottom;labelBackgroundColor=#ffffff;verticalAlign=top;aspect=fixed;imageAspect=0;image=https://pbs.twimg.com/profile_images/1235868806079057921/fTL08u_H_400x400.png;" parent="1" vertex="1">
                    <mxGeometry x="450" y="570" width="30" height="30" as="geometry"/>
                </mxCell>
                <mxCell id="AP62TqUH0sliwpTxDApQ-95" value="" style="shape=image;verticalLabelPosition=bottom;labelBackgroundColor=#ffffff;verticalAlign=top;aspect=fixed;imageAspect=0;image=https://pbs.twimg.com/profile_images/1235868806079057921/fTL08u_H_400x400.png;" parent="1" vertex="1">
                    <mxGeometry x="790" y="210" width="30" height="30" as="geometry"/>
                </mxCell>
                <mxCell id="AP62TqUH0sliwpTxDApQ-99" value="" style="shape=image;verticalLabelPosition=bottom;labelBackgroundColor=#ffffff;verticalAlign=top;aspect=fixed;imageAspect=0;image=https://pbs.twimg.com/profile_images/1235868806079057921/fTL08u_H_400x400.png;" parent="1" vertex="1">
                    <mxGeometry x="50" y="390" width="30" height="30" as="geometry"/>
                </mxCell>
                <mxCell id="AP62TqUH0sliwpTxDApQ-102" value="" style="shape=image;verticalLabelPosition=bottom;labelBackgroundColor=#ffffff;verticalAlign=top;aspect=fixed;imageAspect=0;image=data:image/png,iVBORw0KGgoAAAANSUhEUgAAAUoAAACZCAMAAAB+KoMCAAABLFBMVEX///8AAAAZvLH80gsReqIbqOCSyD7vT5nY2NiEhITg4OB/f3/8zwDV1dWSkpIAt6v5+fkhISEApN+urq5sbGyoqKjIyMiampp2dnZOTk4AdJ4AbZpXV1eMjIwAoN3Kysrp6em5ubn//PP96aRkZGTl5eVHR0fX7+2MxS/++OP95ZH921/uOpD5xNn+9dn81jf+777+8/fW6/ft9vy73vMtLS0cHByNs8heycAyMjLK2uTm9fRHxLrK6+ik0GXA3pmz49793Wr81Sz1ocTwZKPygLL72+j3ss7+8svxc6v82EvvVZv2p8j60+LtL4z955v0kruGyOtfuuZzpL6p1vD933WoxNREi61Ls+SX2dSVzu180cq/0986h6uUt8vj8NPQ5rSZy03b7Maw1n369qlwAAAId0lEQVR4nO2ceV/TSBiA04Ojd2ibniltoS0Fiko5pBYUXRVXXVdABRbXa7//d9iZSZrMJDNJi8VJ8X3+SnNMJw/vzDtHfygKAAAAAAAAAAAAAAAAAAAAAAAAAAAAAAAAAAAAAAAAAAAAAAAAAAAAAADA3WR9fX1Fdh1mn5XVp5Ek4fXGPdmVmWXubSaTEYtkZFV2hWaVlU3KoynzgexKzSQPnCKJzKeyqzWDbPBMIpfPIANNiMAkRnbVgs/2H897vYUXW+TDqthk5Jnkigae970FQm/hJUrdHiYjyY+y6xpsnpsmkcsT1Lw9TCKXr2TXNsj8uWDRQ1H52lMldJcebPUolaqieLVvHJYwvBSyQPEGTbp9VEbuy65wYHlJBeXCC8HonAnLddlVDiontMoTz0GlqRJm4wLeUiZ7fynKpo/JSGRTdpWDCqNy2zfrYCb+jngrn9duoe4Bg07gC4qy4q8yOfF3LIZCocS0Ktwu63pxWoVNle13PUsmyjqvxlA58aIGVhmbVoXj0/y7TJmXJy8WDJ1vFeXvoKmMFwoFlTkRYJWY7a33b3rvthTlqX9XebMGflOVNfRsij4RWJX9XetPvr2Fso6/yV+sMu1U2dZbQewr+5fL2eW5092d0Ykxss4NpjtTVRlMTpfnMFlK5xgqJ19Kv/sqz7JzNtls9qzvn3aSr2/wRXde5Sltkti8VPzCkmyVqeePJvumu65yd3nOyXLfZ+U3uYEe3IlWqueqb/kUP6ty8YbP/iqcMYk58048ZCWjX4lGo5XKjqDYRlHfR29frlGhZKsshGz28k320UKiQ8539HwsjZO0quVyLXQmnSNoccU8WaeeSqXJFw5atVx9oj/w1PjAU7mMBH0Um8SbEY+qUUKV61JtUaqsYLJV1kMslJOm45JiDCFpcop5smQ9ldoTFPcLueSYnMue4rVfQVwm8Q+HPpkmEZxC2+yrj6KOH5Xsy+edV9zFGeUxQ/Qce0P81nR5sOPuKUlYoksrG3yZeBD00DZZOXcVqpL3STRTqUKNHJpxaats5GzyI2OYIvnQSmtaMR0rtcoDQ+XSEm68+0sEt8qUYTCPH6uV9FD7Vp0J6PPa91y2b1xdjbh+MkQG5ue2SV4T19Fr6aP+CpvaNw4FaYe034JxHGKaLUXRGWy0yj2r2Utkl6sSyxmS6w/uMzKTZL33okKZjFYeOsrExjr2x44lSpTBNcsKbvhlbkVdgyFKZUpao6bhZJ3sHA6og8zBGrnjFfVjNvJLAjQIirI4yiyhF6OaGH7RPDkSqWxYAjWqZ2XxUhkLBWFlwx2VZICuHGbC4czhEbln/aPZaZJBUMMp0tXC2aA0Gi05EI4r0fk9clAUpl8vlYNQEMacrr4yi8aUiho2yISPyV1GBiJb34+qTpPRCjvpwe/ILNnggVEDH3ipXCIHOCr5WxZeKqm0JRNHBsfDIGWYCY/IZK6M/LHqGgSJVDbtJGJgLTX6qySDpAbvFg+VDWczkMQZOwj6B51as00SmddGBnIMgqgGzqp05Vpt5JarsrFYaFoqjWFUvumerniotDtjufTpsFz+gM4cMSaJTTMDKeeufpLTV+IkEFdt7FzCqkxpJX1gjaoNlUrN/LifL7L7Dx4qC4HIOgoz3VneRZ+PXSbDowzEjUmkki2wFOLgisq04wZTpZKgzg2Ktk0flVPbffsZ7PkOGZhf8UySyETNj6/ygi2Qq9LRV6r7owv75XxMo1Qq7Rj9XG102kdlTQkCoyaexe30WmASuUSN/CGvgVc+s+VxVZLO01ZJGnas3jCjjlaJaDdr+ujBlnluFqLSWrHEJg+EJsNhYVg6isNNlD8JtlQ6E7VDJaHRNP4m5oDRQyVeZuJONiWwc5m1B+ZCcFh+cYdl1bmULl7vtlRi2/TwkacSoQ7spuuhcpEKXvns0gNzEYfoHpdK1wycLHjxJ3+Wyg4blCKVZJijG4c+48q9CV/4dhn6mAxnUBb//G+1QuusupfYcHtLc7/BUomTDn1BpBJfGBhHrill8GY7FkOvxm2HJZo6frmojnxWv7gLUu33d8CopEeNY6h0LXRQKjtOzZLxNxnOWDf3P51XqpXqRZ9XknB1gWng9IRIpLJhN/Cmo3ulVaYD1VmOE5Q4Kle+Wk/sfBbs3WqivstSiXMzveLhSOgWJbuvSDl1USrJ2jG/e5bB2hgqrxXlW7f7+MkPnx9m4Dfb4yRxS2UzRIVlvGhscelImlpv2w2/kadvCznyDr2KTnYoY43RJTkbjhZjqMwcK8qT7vx8t9v97qmzaY6uY7FYopTXO0vmZoE9RCfXS5pWjFljcZI6jA2xjp4vlVrGhMhapyA3lmOJVnmPBCqt0tyS3G+hb5O/eDmOSjSw/D5vgHR2xYU5J9hmL2erTDlvMFUuOk/ZuxPUJWKQ2XF07GDKzUFj9JUZ1HC68xbdr+LS6kvsuxkdYyrEbseYlOqKVjZUOjd16a2vpnWWZCJ2H7xNR7fsfnOMvlJRvtIqf3gVt1gs6eWynk+kc4W42XmpqVTKmlI2Ezq6XMux21tqvN7UaqVWudxKaI52qmr5zqDTimmpUWH0s41cDD2ll2paQfaOmb9JNAn/Qav8JrnGgeXat31fGVlnvKj8neEu+TIq0bzx8TylEv7tgwhflUMm68w/ll3h4CJe9TVVornOmAn8d0f1Uclmne5/susbZETbOmZQMlmnC83bE+/2vYajsmvOdZ7IrmvA8Zrx4Ak44ttjMgOH5O2HeCKeuZZdt1lD5BJMTs4wzP1xxrHses0k7jyeORzKrtSMMrzOUDYzox+sAjfi+CBjcngFEfmzDNeOjtZAIwAAAAAAAAAAAAAAAAAAAAAAAAAAAAAAAAAAAAAAAAAAAAAAAPD78j+rW8RzxXbFugAAAABJRU5ErkJggg==;" parent="1" vertex="1">
                    <mxGeometry x="614" y="745.5500000000001" width="80" height="37.09" as="geometry"/>
                </mxCell>
                <mxCell id="AP62TqUH0sliwpTxDApQ-103" value="" style="rounded=0;whiteSpace=wrap;html=1;fillColor=#f5f5f5;fontColor=#333333;strokeColor=#666666;" parent="1" vertex="1">
                    <mxGeometry x="30" y="640" width="120" height="80" as="geometry"/>
                </mxCell>
                <mxCell id="AP62TqUH0sliwpTxDApQ-104" value="Service&lt;br&gt;Registry" style="text;html=1;strokeColor=none;fillColor=none;align=center;verticalAlign=middle;whiteSpace=wrap;rounded=0;" parent="1" vertex="1">
                    <mxGeometry x="60" y="670" width="60" height="20" as="geometry"/>
                </mxCell>
                <mxCell id="AP62TqUH0sliwpTxDApQ-105" value="" style="shape=image;verticalLabelPosition=bottom;labelBackgroundColor=#ffffff;verticalAlign=top;aspect=fixed;imageAspect=0;image=https://pbs.twimg.com/profile_images/1235868806079057921/fTL08u_H_400x400.png;" parent="1" vertex="1">
                    <mxGeometry x="120" y="690" width="30" height="30" as="geometry"/>
                </mxCell>
                <mxCell id="AP62TqUH0sliwpTxDApQ-106" value="" style="rounded=0;whiteSpace=wrap;html=1;fillColor=#f5f5f5;fontColor=#333333;strokeColor=#666666;" parent="1" vertex="1">
                    <mxGeometry x="200" y="640" width="120" height="80" as="geometry"/>
                </mxCell>
                <mxCell id="AP62TqUH0sliwpTxDApQ-107" value="Config&lt;br&gt;Server" style="text;html=1;strokeColor=none;fillColor=none;align=center;verticalAlign=middle;whiteSpace=wrap;rounded=0;" parent="1" vertex="1">
                    <mxGeometry x="230" y="670" width="60" height="20" as="geometry"/>
                </mxCell>
                <mxCell id="AP62TqUH0sliwpTxDApQ-108" value="" style="shape=image;verticalLabelPosition=bottom;labelBackgroundColor=#ffffff;verticalAlign=top;aspect=fixed;imageAspect=0;image=https://pbs.twimg.com/profile_images/1235868806079057921/fTL08u_H_400x400.png;" parent="1" vertex="1">
                    <mxGeometry x="290" y="690" width="30" height="30" as="geometry"/>
                </mxCell>
                <mxCell id="AP62TqUH0sliwpTxDApQ-114" value="" style="endArrow=none;dashed=1;html=1;fillColor=#dae8fc;strokeColor=#6c8ebf;" parent="1" edge="1">
                    <mxGeometry width="50" height="50" relative="1" as="geometry">
                        <mxPoint x="530" y="800" as="sourcePoint"/>
                        <mxPoint x="530" y="90" as="targetPoint"/>
                    </mxGeometry>
                </mxCell>
                <mxCell id="AP62TqUH0sliwpTxDApQ-115" value="Synchronous Flow" style="text;html=1;strokeColor=none;fillColor=none;align=center;verticalAlign=middle;whiteSpace=wrap;rounded=0;" parent="1" vertex="1">
                    <mxGeometry x="130" y="90" width="130" height="20" as="geometry"/>
                </mxCell>
                <mxCell id="AP62TqUH0sliwpTxDApQ-116" value="Asynchronous Flow" style="text;html=1;strokeColor=none;fillColor=none;align=center;verticalAlign=middle;whiteSpace=wrap;rounded=0;" parent="1" vertex="1">
                    <mxGeometry x="675" y="90" width="130" height="20" as="geometry"/>
                </mxCell>
                <mxCell id="DSgFrJyKgC6jByb_c58T-3" value="" style="endArrow=classic;html=1;rounded=0;exitX=1;exitY=0.5;exitDx=0;exitDy=0;entryX=0;entryY=0.5;entryDx=0;entryDy=0;strokeColor=#4D4D4D;" parent="1" source="AP62TqUH0sliwpTxDApQ-1" target="AP62TqUH0sliwpTxDApQ-8" edge="1">
                    <mxGeometry width="50" height="50" relative="1" as="geometry">
                        <mxPoint x="560" y="450" as="sourcePoint"/>
                        <mxPoint x="610" y="400" as="targetPoint"/>
                    </mxGeometry>
                </mxCell>
                <mxCell id="DSgFrJyKgC6jByb_c58T-4" value="" style="endArrow=classic;html=1;rounded=0;exitX=1;exitY=0.5;exitDx=0;exitDy=0;entryX=0;entryY=0.5;entryDx=0;entryDy=0;strokeColor=#4D4D4D;" parent="1" source="AP62TqUH0sliwpTxDApQ-1" target="AP62TqUH0sliwpTxDApQ-6" edge="1">
                    <mxGeometry width="50" height="50" relative="1" as="geometry">
                        <mxPoint x="560" y="450" as="sourcePoint"/>
                        <mxPoint x="610" y="400" as="targetPoint"/>
                    </mxGeometry>
                </mxCell>
                <mxCell id="DSgFrJyKgC6jByb_c58T-6" value="" style="strokeWidth=1.5;html=1;shape=mxgraph.flowchart.database;whiteSpace=wrap;strokeColor=#7EA6E0;" parent="1" vertex="1">
                    <mxGeometry x="440" y="263" width="40" height="30" as="geometry"/>
                </mxCell>
                <mxCell id="DSgFrJyKgC6jByb_c58T-8" value="" style="shape=image;verticalLabelPosition=bottom;labelBackgroundColor=#ffffff;verticalAlign=top;aspect=fixed;imageAspect=0;image=data:image/png,iVBORw0KGgoAAAANSUhEUgAAAMYAAADcCAMAAAAcCC6SAAAAllBMVEX///8xYZIAAAAaGhouX5ErXI8GBgb7+/v29vd2lrfW3+nw8/Y2ZZXv7+/p6elih6zf398kJCTPz89CQkIwMDDJ1eI8apjk6/ESEhKnp6cpKSmfn59Ic55/nLt1dXWysrI5OTlPeKKXr8i8vLy4ydpcgqmNjY3W1taiuM5TU1OPqsSDg4O/zt3b5OxlZWWEhIRdXV24uLgSL/kgAAAVB0lEQVR4nO1di3qiShJGuTSKyFVRUcA7iJLs+7/cVlUDooLJJJLJ7FLnfDOjIPbfXfeuagWho4466qijjjrqqKOOOuqoo4466qijjjrqqKOObknVx7rK/vYovkzMngeJY1nWDP6zXCc7bNW/OyDVPNpAY9YwqePtPE2DID34cA99wg5cpa8o/RtSFCuw/8a6qPrRz9zraGaWk85tYJLyDt2cJ7PqcBU3myd3468AUWaB/cOLMt6mbu1gnGBum3iHGSYNAybQ4sKNIsdxoihaWKKSI+kn4fgHQfjOzSzfvOjPnMC3fae8OLMWrrtYlAuzSLJDuD3m68aE4zE8pI47y+dh/lO8NXcUPvJZlL35YbjdbkP/8JY5ixKLxcc8iw6H7da2jyBAcNMhc5y30NbrHnqc8/VVZon9EyDUgM+blcKMatepY6A+j+FbdF0aZ37Ub5idabr+ZK6P/+FLaB1aG3xJOv8q5z9NN6jbTKSVeDIY77wZGOvpaDSdLo1VPCzBbrnEZW2L+tglngn5K6Zq3mU4mUyGF02rGDJAknHWUbXhLj4BxbuJp+WjU+OlhNTr4f+SJPf2pxwKO9BaJ+1Kuo4oZnyy2GWyMZZyTtJ0P4h3Q686j+owNqZySdLSiCcev7JZI4qCAIm8jy906UjqwzFbRKGiEp359O/JaY9Dk8qRwFDk6X5VjFQQdivAcDNYSZb2pzMhHZ5Gcq9Kkrw+DelLUlwQ99gejINSoPBWU0Ag9e4IBzrdn/GOy2AqP1zHG6ZGTOx33st31+T1hq74FuJobT1sfDxJ7nn5CKEg2dDgjt0N19wiGeVADfn+0sigpQxxPZJaxfx9UgNYDAfna9cEAYeyx5HsRo0wiVbIWerq8dNTYiwfcaTtGMIjPFsZf4RiOsE7mpaiIHlJwz2NHj4v7fACsW8rdpClYLuRpYZT/oX1A9zAHZOPUNBwGeF4lC/EwTJcjjbMhw6SYcFXa8azMSJLXaYfokAcJ5ShzcN0SFPEoeK3tWE9tvn8PGWYEQ7hQXQbcAwQx+lxOYgvU/i6FpQuLrO1BVX7dJAG3Bl/BgTRQEU5f3iehPoKZ23+ehgCCHgEqzx5hkKCefTWn2ApTvIKnuvtH+6X4TEmeGbp61GYoKbAC2GPk1dBsYYbT58FgeON4QPn6cPbJ0Y+aPZ6GD7AgEXWnomvvKud3Gc4dnXAZUMV1AyCwddbDhANEURj+GwxpgwN3x+g6PXI3N0jl9aw7G9ga1+OQnC4u7Z5AkM+wWoNPqWmroSuy/DuPWkKbx7agMFAjzsg4c+MBkrmp2zGDaG9vJucHIbSwmqAd5DAX8vmUUpr0JO7P1yMnoRuiXb7WILhtyHiugKKCv5+thhgBtQ/5SlkRbAe8c3HpCVnqtfDMGE1AtBDj6MsgaH2rFdkT/lM6g1Rv1UfLK01EHGlBbtxhNV4A9ZvnmxpNHmuyJpIHsDzN1WoqHBZ0IYVRxiHp8OU1sN75vgcSRJE4cOqdCB7aqDhX++p5zCeuCLkCT2z8U0gJPRJ2KAKI7fir49jzQ9XQ8aILvenpDyB8yEEWZ5Ol9MRCnnFbKKUjd02HPVPwADjJ5A0j6b71WlzMqYfGfR9PCzdjUnFsyLXUOk7r4/GVS7i9zCqMx6jIpOme56nQdoZz4AYk+oXeOvrQ9FD2Sr9oIVgHPz0t1qFWxBGTMPp4Fz9brXZ3ZVOeYia7/BcKjAwhATr57cAw+XWqJnhMfb08glml+GEpzNPDbgp1BAuu9NqMFitdgjjaoAwnMr6ShsphaSvoDPS4DJJwAnn/E51N9ivQXL3GxgNq/fbyd1gm+VovR7JMmK6LK8X0c1atJM4RIdTf+IaSku+Et5qORpJ0tLY9ySc1XoVjbqInaSTp6qaAQyGhuMKERZHbynfBrGxazczCXfxBC3P2KDWEnZTHGxdTMstHjnpaDEwp7MrNRXZ0bCVEBb0OA+bGj1YgnFZ8sujmD6zwXHWAZeWHlr80U5lWgxrh/b/CsPgotFGQoFUVfjEqSKmKuIGaY9L4xnTSz1wea9hVC9Jg5MBZlLWbiJZXMqWRANlHHOGalNYRCIel/sE+/gcG5JM3uLjJzBdje4HbibgR+Hxq/IufNCxlQgWCf1/+PL7dP4Vxq4689JoClKCkuzVRFoSX43yFUzPVXeseejXimgIgs3zVI0yjjDOdxdRk9bl53LZKF4ZeFcJA/32qKVENKlA8fhExtGK32tXyWB1aUGuqUrMZDZK+4LPMWeK1Q4KQXWVPmZ4rp7rLbOQM3IPYwrxT10yRT6j55I/AJ3KYamXUVAOCoaarRCGY4cnuc3a1ZC0+lAKR15yG0pQCUNCnkra8USI5pTGa0xE1cHoyZgsqbN/lCYtYFRXQwZVfRT7bfEUyLiiiGpzwq0eBgzqXJdSkFE4cq5CGIVsoNZCnmqvUsEE4TBxy6yeq6a1MMBwnOv2AeXNdcMHcwpF6pfSK4nSb2n/EkiFIN+vCuMN3dmNYrQgypM6GGTyNjyqqihcqYdbGyJl9toinxKHXr2TS3tED9KMq1ELg7b4cudcWqKDSB+VV4x4atsijO2sLwp121x8LMMauWlkKr4xNeD/HAm5MyLhPo/u9K32eAqFg7bj4odtFYKxvtTkd1CSG/afcfUunKtQn5FrKOfbZYdWa8O4d3gNcG5ggJv0GFSRwq3xDZHQQPDsFDnqiEhCBz9rzRHJCZg2gr/2vZq0LMrpQ74drXhTJpG40OP/PPOwSdpfKLBpuZ7KtvozmPPHGokCxj27yQ0+Ff8ExhVkAsvoD98J+rN2AqaSmNtXwro9x4JH7tNS8oY1bwZSsOqhCURewofi+ugKbQe1Shlledi0iakeVoPEuCkLgalaYjmEgauBMxFQdrJdCpW+y+rTI3Wy8cH+k4QxLu5s5EyFL8diu9qWiM14XqFufjHVN7i9QNP9ZP+JdjbiQsQlzMAFrYV9VUook6vWTS0y9u3MU3juPcusS7TRJKFa3oxGoD3MRX/2AxXeYZ/23Ou4CpM66u1OpNEQbVzvQH82HlFKAZ1F4a3fom9bIaW/sCuzLl2FndwhrlylK7CmbGnxIZAKdU0RO5qYIyzGT6BAQ+7Xp3lIf96opc9sMGP4tBliRItlF2/tVO080lbBNE/t5hjVsWwqooDGbP0cBWdFuC9GBoTFcH+m90G1FMyP1CWYSX9q13TOCCO/DytI9jRuz8DFyCgx+RPEUvqqWtNM+rO8QuI7+AhFnu7dDRhlwtqqWn0g/K6GrA1nqyI0RdOMW0gf7GSSSAkx/uH2Z22GSzc0dvp9LHKrL0egrZp4OsKNWO92e7WJZCo5FHiRCO9/Yqqu27bZppiwA20CNtR/jmivRtsY6ylFdw2hxi0OXuxtzsCAY7/Xdp4m1DWVtFlvD966yBomuthyAnaaoL+02tcVqt99RkbVILBqo5Eyo/4Hp8UgENsGwvrsIS89vUop87xhPH1uOaTeaoJcpQYL3mm0cLD3KTxgM0ubUeB81neF2sJsrMURjlFyozWHTVsJnEabfMrVMbUQHk2dywp4032/RRg6D568++BCIgEfR8ATYnIISwGt1wYFGXSP9vg1x6hlKwKmIxIeEj0S5QN03qDIqza1zQnbB56VtGJBAtsseyevlAOmUn/R0W2j9qVC41l/Fj6WgGFwoQW5oOLmszaQ5anXlErhtBQwRSVJ8sjY7CaTyTneDIwVggf967aJAmMbmuwbt49XnL/lqibC/UdcLrTsanNpLsaM2pr+VfZArUkBbxetu4k6Xw5W2Q7j3ScchRIdkBtiMuAYSzSXi95t7F9btRBFCxU8t3Tg3s+1WpU28wTsdnMz36bMBm+oIc/qOYxL2Y3W25/yBi9Ut+17Jthdgcqw2CSQRjiF4WxxMIv2P151wC88gYEhnwcCcdrEu0vR1DkmPdFSU1CVIJidIeNschRo9uxFWXDKhkblwjMYu4dHM/2AbcBK9gM9vjqYcoe6YaagZpbcYPDKeO8y2exlSgbyC09hTG6fq43tN+q7/hEUvHmOUq2TlUHlbFpGbHY5UeMliet0kNe5PdFUIArm1j6OTfNoYw9z1M/be3+o3xp7wTIyvty5zsjxFS4bY4kVUvKo6Ld8CqMHH34TFxHSQiycw1n2I83WNG5gK6V0pTEK6Yv0SqNm38mFt8fq2TMYtHWWcLN/bdD2jz94rIKKbb7iARdEI3e0ryweim5CUXwKA9Sx5vQVq2iXT9LtT5/ZofJ2+4hinBmf02BcGYO6hTVaPIUBNt6M+i5TQTjGz3ri28RxPafCtYsXzhtI7NE8HsOADiV4CgN3xO1Fq/uun6H8bAgrA7vN5olViKiI0qooeKbCU6bCHMRWVNqqD/kssXF4SFM/1yvM9vMomoNJ5ofZBzAm1I7cZnT0WbphaKab9tZPsyxLQ3Ct5hxGo/nDjVr/x3Jsf0gMAx9CBzAwtdwMg5FX/GNW4ov0AQw0G1jf9INHvXyJgO8VoRmGbJB3pvzd85A+pi3AwF2dJp5aoUep/FAW/eu0nSk41Y0wNrQZ0ELP6GsJ/GBFb86r416TPWulT+OlhDDMhrKGHq9927bTp/FSOlpU+/iYYOSKCiPc8LeajQqNAca2rGJ7gLH2qBH5t5uNIk/asM2BlepqxoP6X03MpQxKQw85tthp4Kb/dutHXeZvt81wVRgxZe5aPsXpBYSRboYJtXrZ2NERDcFvt36CkCnYh8HqqxOxysRvs3L4ZXRQKPxb18LA+siMdMBvp1ChfEltzSslPsW+9ev1Lda198UQuyUaeGrbb78k7wXEZrx5s85Vx5ISp99ao8ZLCewftow9djZLWCyyVX6wMOE7FPDDYh5aoqj6WHCUVve+X0c2ZkjGVNVwbSaSelNq03xT2mpSfDlZ/b6IQ/XwZD2JDmOc7k+0MeaL/b+eafsshZhTRNPAditjv94bq5iqEgSVttj+ATVFhM0rfYuzjne5XIr97xATjlaLhzC+mI50TGh2u6saOljb4vw7KPJTHfviW8E/epjxDZnsX+EoTnae13WTIMiS/PBfxf0nDEaV9KDIted56pmV/QMO4SMdD45VQkjS+a+PW5tIt7e+fzj4c/s4/icMdzM1HRrfUUcdddRRRx111FFH/zPEcvr8hd9HTBvSUXqD1WZy88sdAl4YGAZdYNc3vd+ISov3lEWkncHlqjzVUfBiqmsY8Qun4pTBuLf0Gh71F0kb4ODj3fm8i08AaBnnF84AYjmoXDjxQtk/hcH0cU7muLWqfbbp9VYFKzEvHuVtamy37PU2Q624gC+pqeKPYdjuwiopaqkWQlv2jOqoAIeB3zSB6Z9Uv1KDxVlpX4GxEBNOjrMQxaSNrVI2pMNOK2+s8UgIpo16y7vCdQY4YvYlGNeR+674mQ0h+/iHYHe93vnmjRP1xw6KQxErpK0RwFdgVPKSczH6xC6jG/1Z7ontclkoabcEIR+O8t6z20u4HN+EIbjWJypM3T/9qaXJHVMJ2mTiCSv+Ex53BOKx/O5qsHfxEzvw0R+uBp5bY9y0+6FYsz31nt0TajXvu6sBMLjmYHdV5Grlp9cqq8H0ezFRa+RGBbNh3A9ruO4N6hTjbgRL900YjuhjAXTgiqK4yPIfe9R9x4LX1jsmxu00sBZBEOgCM1O8zQ1MYR7YgpqmwtYRqW9gnOInoqCASx1me7AQFcfpvOSHt94RG+L734NxFF2bsbloOUEaJAsxwGumIzrBYe5noMeYEEauJbqRpcNtYpSl6ftiYQdiyHTR3YoLx3EENres5OAf3i2x6L0aGtQqNzJOOy+3gzTrNUSr9AUYV+N9dMSMCb4YUSqfmYEYqAI70GBgHk1cK/BEgangVSi6Pr0Pa/duAQxr4byjngN8jo3sz+ykxCFMToM17/pbr3bYVgowaiQcjzboDb6yGgef0yGIxMRkR3dR1NOr7+KW6Zll5mPZirSbSiKuLqxig5hl4iIUdEt0aJ5N1817ZNjYsa47NGx4jk8DgrI+aaxpNb4K40ruAQaciteTcbaLRNDfrYLF1ZS8FRLxUHwvbxsDDFiNXFn7lQfY4m3JKtO8SYxFrgMNHKhN3YiAqVZfgYG/cIlkm6idQOde1anuiCowVVLsP3IJpdUIqqrZsXA1OFyWVQp19OiuoA2ewFSU+BP8saob0QTgfUfh8vhrnIiV+XMAk5nAOr2nc7voRKLVeLcqe2EBwlgs+GOcRTpHJqU/Iuz8fQjswMkyYNbXdSNCz+W7dgP10qLypQkemKLOM8dFlevMSR3QaqBU38KweLM0i0T3ShGspDcY3AszmOrhAO3cw4DYqdfTvg9j7FR8RYCRc9jYnqdZJFKxIK1GIFbclqQKwwG/jJUEKguM+D37rMC3BRmvMRykb78P41Y2IgsUaqmRIThBxUOr4VecYdUiEc9hBFXtZIPSYHkwdAeDLXvLoXBPG/SGvw9DOFQUTWi9A5elJQ6+BLQauhiVhQcpV7h5B35YEf6thYZj/zBeo7ceohTcw2Pg9sJ7L4BhumV5h/4u2sx0o/KOjOSau4agwPJ9Vl90qzDGzrW30SHjEvfu3CePA1jlv814JVBfeMLNC2AwX+T2j43fURbUQMzLZ5ktklPoEBg1E/HnfI8hmOqqiAtsa7lc5YL5pIZsPHvgVMEBMR4GTAxjvcFddEvx4Jdg3KsLH+xx6qfvIh8/KFw38OfzQwJeCt7rg86KwDX0I/IYozlqKqYvymMdQldMQN8GlpX3UIMt6K13nqYxVdO887pYHW0w6o1Ow+J9zPXQ6fIII97d0lNYZho8JESYHTiRGznBlrfI6f47vo6SlDsZzM8SfiyTHc63yEC4GujhFg8wU/iA62SlrE/wV0ZGxmC1GqCTuCx4iW2wbncN76/w/dEeluPMg457qnXArmOufVc1j6Zeuaabpnm3als7P9MI/kgW97EvM4/H6gO03WqfnwexNE6VyNyLB2tenj9aD2IvBvW1Udl5cE+rR6X2FXrIsTpliRT46NHjkj583htOzrvdeTL0bu/T6P3deeih2oIwZASqSruSiv+rWv18f5sqTtW7+JlzFj8aRz5Pw/3uB9O3bLwQU1RyGFW8tDT1Z3PQzHYwDIwWovXr+8eek+2nQZDO/60CvBr6t1eho4466qijjjrqqKOOOuqoo446+j+j/wLgcJ3aPXywmgAAAABJRU5ErkJggg==;" parent="1" vertex="1">
                    <mxGeometry x="477" y="-98.44000000000007" width="28" height="31.11" as="geometry"/>
                </mxCell>
                <mxCell id="DSgFrJyKgC6jByb_c58T-9" value="" style="strokeWidth=2;html=1;shape=mxgraph.flowchart.database;whiteSpace=wrap;strokeColor=#7EA6E0;" parent="1" vertex="1">
                    <mxGeometry x="426" y="-98.44000000000001" width="40" height="30" as="geometry"/>
                </mxCell>
                <mxCell id="DSgFrJyKgC6jByb_c58T-11" value="" style="shape=image;verticalLabelPosition=bottom;labelBackgroundColor=#ffffff;verticalAlign=top;aspect=fixed;imageAspect=0;image=data:image/png,iVBORw0KGgoAAAANSUhEUgAAAMYAAADcCAMAAAAcCC6SAAAAllBMVEX///8xYZIAAAAaGhouX5ErXI8GBgb7+/v29vd2lrfW3+nw8/Y2ZZXv7+/p6elih6zf398kJCTPz89CQkIwMDDJ1eI8apjk6/ESEhKnp6cpKSmfn59Ic55/nLt1dXWysrI5OTlPeKKXr8i8vLy4ydpcgqmNjY3W1taiuM5TU1OPqsSDg4O/zt3b5OxlZWWEhIRdXV24uLgSL/kgAAAVB0lEQVR4nO1di3qiShJGuTSKyFVRUcA7iJLs+7/cVlUDooLJJJLJ7FLnfDOjIPbfXfeuagWho4466qijjjrqqKOOOuqoo4466qijjjrqqKOObknVx7rK/vYovkzMngeJY1nWDP6zXCc7bNW/OyDVPNpAY9YwqePtPE2DID34cA99wg5cpa8o/RtSFCuw/8a6qPrRz9zraGaWk85tYJLyDt2cJ7PqcBU3myd3468AUWaB/cOLMt6mbu1gnGBum3iHGSYNAybQ4sKNIsdxoihaWKKSI+kn4fgHQfjOzSzfvOjPnMC3fae8OLMWrrtYlAuzSLJDuD3m68aE4zE8pI47y+dh/lO8NXcUPvJZlL35YbjdbkP/8JY5ixKLxcc8iw6H7da2jyBAcNMhc5y30NbrHnqc8/VVZon9EyDUgM+blcKMatepY6A+j+FbdF0aZ37Ub5idabr+ZK6P/+FLaB1aG3xJOv8q5z9NN6jbTKSVeDIY77wZGOvpaDSdLo1VPCzBbrnEZW2L+tglngn5K6Zq3mU4mUyGF02rGDJAknHWUbXhLj4BxbuJp+WjU+OlhNTr4f+SJPf2pxwKO9BaJ+1Kuo4oZnyy2GWyMZZyTtJ0P4h3Q686j+owNqZySdLSiCcev7JZI4qCAIm8jy906UjqwzFbRKGiEp359O/JaY9Dk8qRwFDk6X5VjFQQdivAcDNYSZb2pzMhHZ5Gcq9Kkrw+DelLUlwQ99gejINSoPBWU0Ag9e4IBzrdn/GOy2AqP1zHG6ZGTOx33st31+T1hq74FuJobT1sfDxJ7nn5CKEg2dDgjt0N19wiGeVADfn+0sigpQxxPZJaxfx9UgNYDAfna9cEAYeyx5HsRo0wiVbIWerq8dNTYiwfcaTtGMIjPFsZf4RiOsE7mpaiIHlJwz2NHj4v7fACsW8rdpClYLuRpYZT/oX1A9zAHZOPUNBwGeF4lC/EwTJcjjbMhw6SYcFXa8azMSJLXaYfokAcJ5ShzcN0SFPEoeK3tWE9tvn8PGWYEQ7hQXQbcAwQx+lxOYgvU/i6FpQuLrO1BVX7dJAG3Bl/BgTRQEU5f3iehPoKZ23+ehgCCHgEqzx5hkKCefTWn2ApTvIKnuvtH+6X4TEmeGbp61GYoKbAC2GPk1dBsYYbT58FgeON4QPn6cPbJ0Y+aPZ6GD7AgEXWnomvvKud3Gc4dnXAZUMV1AyCwddbDhANEURj+GwxpgwN3x+g6PXI3N0jl9aw7G9ga1+OQnC4u7Z5AkM+wWoNPqWmroSuy/DuPWkKbx7agMFAjzsg4c+MBkrmp2zGDaG9vJucHIbSwmqAd5DAX8vmUUpr0JO7P1yMnoRuiXb7WILhtyHiugKKCv5+thhgBtQ/5SlkRbAe8c3HpCVnqtfDMGE1AtBDj6MsgaH2rFdkT/lM6g1Rv1UfLK01EHGlBbtxhNV4A9ZvnmxpNHmuyJpIHsDzN1WoqHBZ0IYVRxiHp8OU1sN75vgcSRJE4cOqdCB7aqDhX++p5zCeuCLkCT2z8U0gJPRJ2KAKI7fir49jzQ9XQ8aILvenpDyB8yEEWZ5Ol9MRCnnFbKKUjd02HPVPwADjJ5A0j6b71WlzMqYfGfR9PCzdjUnFsyLXUOk7r4/GVS7i9zCqMx6jIpOme56nQdoZz4AYk+oXeOvrQ9FD2Sr9oIVgHPz0t1qFWxBGTMPp4Fz9brXZ3ZVOeYia7/BcKjAwhATr57cAw+XWqJnhMfb08glml+GEpzNPDbgp1BAuu9NqMFitdgjjaoAwnMr6ShsphaSvoDPS4DJJwAnn/E51N9ivQXL3GxgNq/fbyd1gm+VovR7JMmK6LK8X0c1atJM4RIdTf+IaSku+Et5qORpJ0tLY9ySc1XoVjbqInaSTp6qaAQyGhuMKERZHbynfBrGxazczCXfxBC3P2KDWEnZTHGxdTMstHjnpaDEwp7MrNRXZ0bCVEBb0OA+bGj1YgnFZ8sujmD6zwXHWAZeWHlr80U5lWgxrh/b/CsPgotFGQoFUVfjEqSKmKuIGaY9L4xnTSz1wea9hVC9Jg5MBZlLWbiJZXMqWRANlHHOGalNYRCIel/sE+/gcG5JM3uLjJzBdje4HbibgR+Hxq/IufNCxlQgWCf1/+PL7dP4Vxq4689JoClKCkuzVRFoSX43yFUzPVXeseejXimgIgs3zVI0yjjDOdxdRk9bl53LZKF4ZeFcJA/32qKVENKlA8fhExtGK32tXyWB1aUGuqUrMZDZK+4LPMWeK1Q4KQXWVPmZ4rp7rLbOQM3IPYwrxT10yRT6j55I/AJ3KYamXUVAOCoaarRCGY4cnuc3a1ZC0+lAKR15yG0pQCUNCnkra8USI5pTGa0xE1cHoyZgsqbN/lCYtYFRXQwZVfRT7bfEUyLiiiGpzwq0eBgzqXJdSkFE4cq5CGIVsoNZCnmqvUsEE4TBxy6yeq6a1MMBwnOv2AeXNdcMHcwpF6pfSK4nSb2n/EkiFIN+vCuMN3dmNYrQgypM6GGTyNjyqqihcqYdbGyJl9toinxKHXr2TS3tED9KMq1ELg7b4cudcWqKDSB+VV4x4atsijO2sLwp121x8LMMauWlkKr4xNeD/HAm5MyLhPo/u9K32eAqFg7bj4odtFYKxvtTkd1CSG/afcfUunKtQn5FrKOfbZYdWa8O4d3gNcG5ggJv0GFSRwq3xDZHQQPDsFDnqiEhCBz9rzRHJCZg2gr/2vZq0LMrpQ74drXhTJpG40OP/PPOwSdpfKLBpuZ7KtvozmPPHGokCxj27yQ0+Ff8ExhVkAsvoD98J+rN2AqaSmNtXwro9x4JH7tNS8oY1bwZSsOqhCURewofi+ugKbQe1Shlledi0iakeVoPEuCkLgalaYjmEgauBMxFQdrJdCpW+y+rTI3Wy8cH+k4QxLu5s5EyFL8diu9qWiM14XqFufjHVN7i9QNP9ZP+JdjbiQsQlzMAFrYV9VUook6vWTS0y9u3MU3juPcusS7TRJKFa3oxGoD3MRX/2AxXeYZ/23Ou4CpM66u1OpNEQbVzvQH82HlFKAZ1F4a3fom9bIaW/sCuzLl2FndwhrlylK7CmbGnxIZAKdU0RO5qYIyzGT6BAQ+7Xp3lIf96opc9sMGP4tBliRItlF2/tVO080lbBNE/t5hjVsWwqooDGbP0cBWdFuC9GBoTFcH+m90G1FMyP1CWYSX9q13TOCCO/DytI9jRuz8DFyCgx+RPEUvqqWtNM+rO8QuI7+AhFnu7dDRhlwtqqWn0g/K6GrA1nqyI0RdOMW0gf7GSSSAkx/uH2Z22GSzc0dvp9LHKrL0egrZp4OsKNWO92e7WJZCo5FHiRCO9/Yqqu27bZppiwA20CNtR/jmivRtsY6ylFdw2hxi0OXuxtzsCAY7/Xdp4m1DWVtFlvD966yBomuthyAnaaoL+02tcVqt99RkbVILBqo5Eyo/4Hp8UgENsGwvrsIS89vUop87xhPH1uOaTeaoJcpQYL3mm0cLD3KTxgM0ubUeB81neF2sJsrMURjlFyozWHTVsJnEabfMrVMbUQHk2dywp4032/RRg6D568++BCIgEfR8ATYnIISwGt1wYFGXSP9vg1x6hlKwKmIxIeEj0S5QN03qDIqza1zQnbB56VtGJBAtsseyevlAOmUn/R0W2j9qVC41l/Fj6WgGFwoQW5oOLmszaQ5anXlErhtBQwRSVJ8sjY7CaTyTneDIwVggf967aJAmMbmuwbt49XnL/lqibC/UdcLrTsanNpLsaM2pr+VfZArUkBbxetu4k6Xw5W2Q7j3ScchRIdkBtiMuAYSzSXi95t7F9btRBFCxU8t3Tg3s+1WpU28wTsdnMz36bMBm+oIc/qOYxL2Y3W25/yBi9Ut+17Jthdgcqw2CSQRjiF4WxxMIv2P151wC88gYEhnwcCcdrEu0vR1DkmPdFSU1CVIJidIeNschRo9uxFWXDKhkblwjMYu4dHM/2AbcBK9gM9vjqYcoe6YaagZpbcYPDKeO8y2exlSgbyC09hTG6fq43tN+q7/hEUvHmOUq2TlUHlbFpGbHY5UeMliet0kNe5PdFUIArm1j6OTfNoYw9z1M/be3+o3xp7wTIyvty5zsjxFS4bY4kVUvKo6Ld8CqMHH34TFxHSQiycw1n2I83WNG5gK6V0pTEK6Yv0SqNm38mFt8fq2TMYtHWWcLN/bdD2jz94rIKKbb7iARdEI3e0ryweim5CUXwKA9Sx5vQVq2iXT9LtT5/ZofJ2+4hinBmf02BcGYO6hTVaPIUBNt6M+i5TQTjGz3ri28RxPafCtYsXzhtI7NE8HsOADiV4CgN3xO1Fq/uun6H8bAgrA7vN5olViKiI0qooeKbCU6bCHMRWVNqqD/kssXF4SFM/1yvM9vMomoNJ5ofZBzAm1I7cZnT0WbphaKab9tZPsyxLQ3Ct5hxGo/nDjVr/x3Jsf0gMAx9CBzAwtdwMg5FX/GNW4ov0AQw0G1jf9INHvXyJgO8VoRmGbJB3pvzd85A+pi3AwF2dJp5aoUep/FAW/eu0nSk41Y0wNrQZ0ELP6GsJ/GBFb86r416TPWulT+OlhDDMhrKGHq9927bTp/FSOlpU+/iYYOSKCiPc8LeajQqNAca2rGJ7gLH2qBH5t5uNIk/asM2BlepqxoP6X03MpQxKQw85tthp4Kb/dutHXeZvt81wVRgxZe5aPsXpBYSRboYJtXrZ2NERDcFvt36CkCnYh8HqqxOxysRvs3L4ZXRQKPxb18LA+siMdMBvp1ChfEltzSslPsW+9ev1Lda198UQuyUaeGrbb78k7wXEZrx5s85Vx5ISp99ao8ZLCewftow9djZLWCyyVX6wMOE7FPDDYh5aoqj6WHCUVve+X0c2ZkjGVNVwbSaSelNq03xT2mpSfDlZ/b6IQ/XwZD2JDmOc7k+0MeaL/b+eafsshZhTRNPAditjv94bq5iqEgSVttj+ATVFhM0rfYuzjne5XIr97xATjlaLhzC+mI50TGh2u6saOljb4vw7KPJTHfviW8E/epjxDZnsX+EoTnae13WTIMiS/PBfxf0nDEaV9KDIted56pmV/QMO4SMdD45VQkjS+a+PW5tIt7e+fzj4c/s4/icMdzM1HRrfUUcdddRRRx111FFH/zPEcvr8hd9HTBvSUXqD1WZy88sdAl4YGAZdYNc3vd+ISov3lEWkncHlqjzVUfBiqmsY8Qun4pTBuLf0Gh71F0kb4ODj3fm8i08AaBnnF84AYjmoXDjxQtk/hcH0cU7muLWqfbbp9VYFKzEvHuVtamy37PU2Q624gC+pqeKPYdjuwiopaqkWQlv2jOqoAIeB3zSB6Z9Uv1KDxVlpX4GxEBNOjrMQxaSNrVI2pMNOK2+s8UgIpo16y7vCdQY4YvYlGNeR+674mQ0h+/iHYHe93vnmjRP1xw6KQxErpK0RwFdgVPKSczH6xC6jG/1Z7ontclkoabcEIR+O8t6z20u4HN+EIbjWJypM3T/9qaXJHVMJ2mTiCSv+Ex53BOKx/O5qsHfxEzvw0R+uBp5bY9y0+6FYsz31nt0TajXvu6sBMLjmYHdV5Grlp9cqq8H0ezFRa+RGBbNh3A9ruO4N6hTjbgRL900YjuhjAXTgiqK4yPIfe9R9x4LX1jsmxu00sBZBEOgCM1O8zQ1MYR7YgpqmwtYRqW9gnOInoqCASx1me7AQFcfpvOSHt94RG+L734NxFF2bsbloOUEaJAsxwGumIzrBYe5noMeYEEauJbqRpcNtYpSl6ftiYQdiyHTR3YoLx3EENres5OAf3i2x6L0aGtQqNzJOOy+3gzTrNUSr9AUYV+N9dMSMCb4YUSqfmYEYqAI70GBgHk1cK/BEgangVSi6Pr0Pa/duAQxr4byjngN8jo3sz+ykxCFMToM17/pbr3bYVgowaiQcjzboDb6yGgef0yGIxMRkR3dR1NOr7+KW6Zll5mPZirSbSiKuLqxig5hl4iIUdEt0aJ5N1817ZNjYsa47NGx4jk8DgrI+aaxpNb4K40ruAQaciteTcbaLRNDfrYLF1ZS8FRLxUHwvbxsDDFiNXFn7lQfY4m3JKtO8SYxFrgMNHKhN3YiAqVZfgYG/cIlkm6idQOde1anuiCowVVLsP3IJpdUIqqrZsXA1OFyWVQp19OiuoA2ewFSU+BP8saob0QTgfUfh8vhrnIiV+XMAk5nAOr2nc7voRKLVeLcqe2EBwlgs+GOcRTpHJqU/Iuz8fQjswMkyYNbXdSNCz+W7dgP10qLypQkemKLOM8dFlevMSR3QaqBU38KweLM0i0T3ShGspDcY3AszmOrhAO3cw4DYqdfTvg9j7FR8RYCRc9jYnqdZJFKxIK1GIFbclqQKwwG/jJUEKguM+D37rMC3BRmvMRykb78P41Y2IgsUaqmRIThBxUOr4VecYdUiEc9hBFXtZIPSYHkwdAeDLXvLoXBPG/SGvw9DOFQUTWi9A5elJQ6+BLQauhiVhQcpV7h5B35YEf6thYZj/zBeo7ceohTcw2Pg9sJ7L4BhumV5h/4u2sx0o/KOjOSau4agwPJ9Vl90qzDGzrW30SHjEvfu3CePA1jlv814JVBfeMLNC2AwX+T2j43fURbUQMzLZ5ktklPoEBg1E/HnfI8hmOqqiAtsa7lc5YL5pIZsPHvgVMEBMR4GTAxjvcFddEvx4Jdg3KsLH+xx6qfvIh8/KFw38OfzQwJeCt7rg86KwDX0I/IYozlqKqYvymMdQldMQN8GlpX3UIMt6K13nqYxVdO887pYHW0w6o1Ow+J9zPXQ6fIII97d0lNYZho8JESYHTiRGznBlrfI6f47vo6SlDsZzM8SfiyTHc63yEC4GujhFg8wU/iA62SlrE/wV0ZGxmC1GqCTuCx4iW2wbncN76/w/dEeluPMg457qnXArmOufVc1j6Zeuaabpnm3als7P9MI/kgW97EvM4/H6gO03WqfnwexNE6VyNyLB2tenj9aD2IvBvW1Udl5cE+rR6X2FXrIsTpliRT46NHjkj583htOzrvdeTL0bu/T6P3deeih2oIwZASqSruSiv+rWv18f5sqTtW7+JlzFj8aRz5Pw/3uB9O3bLwQU1RyGFW8tDT1Z3PQzHYwDIwWovXr+8eek+2nQZDO/60CvBr6t1eho4466qijjjrqqKOOOuqoo446+j+j/wLgcJ3aPXywmgAAAABJRU5ErkJggg==;" parent="1" vertex="1">
                    <mxGeometry x="833" y="264.99999999999994" width="28" height="31.11" as="geometry"/>
                </mxCell>
                <mxCell id="DSgFrJyKgC6jByb_c58T-14" value="" style="shape=image;verticalLabelPosition=bottom;labelBackgroundColor=#ffffff;verticalAlign=top;aspect=fixed;imageAspect=0;image=data:image/png,iVBORw0KGgoAAAANSUhEUgAAAMYAAADcCAMAAAAcCC6SAAAAllBMVEX///8xYZIAAAAaGhouX5ErXI8GBgb7+/v29vd2lrfW3+nw8/Y2ZZXv7+/p6elih6zf398kJCTPz89CQkIwMDDJ1eI8apjk6/ESEhKnp6cpKSmfn59Ic55/nLt1dXWysrI5OTlPeKKXr8i8vLy4ydpcgqmNjY3W1taiuM5TU1OPqsSDg4O/zt3b5OxlZWWEhIRdXV24uLgSL/kgAAAVB0lEQVR4nO1di3qiShJGuTSKyFVRUcA7iJLs+7/cVlUDooLJJJLJ7FLnfDOjIPbfXfeuagWho4466qijjjrqqKOOOuqoo4466qijjjrqqKOObknVx7rK/vYovkzMngeJY1nWDP6zXCc7bNW/OyDVPNpAY9YwqePtPE2DID34cA99wg5cpa8o/RtSFCuw/8a6qPrRz9zraGaWk85tYJLyDt2cJ7PqcBU3myd3468AUWaB/cOLMt6mbu1gnGBum3iHGSYNAybQ4sKNIsdxoihaWKKSI+kn4fgHQfjOzSzfvOjPnMC3fae8OLMWrrtYlAuzSLJDuD3m68aE4zE8pI47y+dh/lO8NXcUPvJZlL35YbjdbkP/8JY5ixKLxcc8iw6H7da2jyBAcNMhc5y30NbrHnqc8/VVZon9EyDUgM+blcKMatepY6A+j+FbdF0aZ37Ub5idabr+ZK6P/+FLaB1aG3xJOv8q5z9NN6jbTKSVeDIY77wZGOvpaDSdLo1VPCzBbrnEZW2L+tglngn5K6Zq3mU4mUyGF02rGDJAknHWUbXhLj4BxbuJp+WjU+OlhNTr4f+SJPf2pxwKO9BaJ+1Kuo4oZnyy2GWyMZZyTtJ0P4h3Q686j+owNqZySdLSiCcev7JZI4qCAIm8jy906UjqwzFbRKGiEp359O/JaY9Dk8qRwFDk6X5VjFQQdivAcDNYSZb2pzMhHZ5Gcq9Kkrw+DelLUlwQ99gejINSoPBWU0Ag9e4IBzrdn/GOy2AqP1zHG6ZGTOx33st31+T1hq74FuJobT1sfDxJ7nn5CKEg2dDgjt0N19wiGeVADfn+0sigpQxxPZJaxfx9UgNYDAfna9cEAYeyx5HsRo0wiVbIWerq8dNTYiwfcaTtGMIjPFsZf4RiOsE7mpaiIHlJwz2NHj4v7fACsW8rdpClYLuRpYZT/oX1A9zAHZOPUNBwGeF4lC/EwTJcjjbMhw6SYcFXa8azMSJLXaYfokAcJ5ShzcN0SFPEoeK3tWE9tvn8PGWYEQ7hQXQbcAwQx+lxOYgvU/i6FpQuLrO1BVX7dJAG3Bl/BgTRQEU5f3iehPoKZ23+ehgCCHgEqzx5hkKCefTWn2ApTvIKnuvtH+6X4TEmeGbp61GYoKbAC2GPk1dBsYYbT58FgeON4QPn6cPbJ0Y+aPZ6GD7AgEXWnomvvKud3Gc4dnXAZUMV1AyCwddbDhANEURj+GwxpgwN3x+g6PXI3N0jl9aw7G9ga1+OQnC4u7Z5AkM+wWoNPqWmroSuy/DuPWkKbx7agMFAjzsg4c+MBkrmp2zGDaG9vJucHIbSwmqAd5DAX8vmUUpr0JO7P1yMnoRuiXb7WILhtyHiugKKCv5+thhgBtQ/5SlkRbAe8c3HpCVnqtfDMGE1AtBDj6MsgaH2rFdkT/lM6g1Rv1UfLK01EHGlBbtxhNV4A9ZvnmxpNHmuyJpIHsDzN1WoqHBZ0IYVRxiHp8OU1sN75vgcSRJE4cOqdCB7aqDhX++p5zCeuCLkCT2z8U0gJPRJ2KAKI7fir49jzQ9XQ8aILvenpDyB8yEEWZ5Ol9MRCnnFbKKUjd02HPVPwADjJ5A0j6b71WlzMqYfGfR9PCzdjUnFsyLXUOk7r4/GVS7i9zCqMx6jIpOme56nQdoZz4AYk+oXeOvrQ9FD2Sr9oIVgHPz0t1qFWxBGTMPp4Fz9brXZ3ZVOeYia7/BcKjAwhATr57cAw+XWqJnhMfb08glml+GEpzNPDbgp1BAuu9NqMFitdgjjaoAwnMr6ShsphaSvoDPS4DJJwAnn/E51N9ivQXL3GxgNq/fbyd1gm+VovR7JMmK6LK8X0c1atJM4RIdTf+IaSku+Et5qORpJ0tLY9ySc1XoVjbqInaSTp6qaAQyGhuMKERZHbynfBrGxazczCXfxBC3P2KDWEnZTHGxdTMstHjnpaDEwp7MrNRXZ0bCVEBb0OA+bGj1YgnFZ8sujmD6zwXHWAZeWHlr80U5lWgxrh/b/CsPgotFGQoFUVfjEqSKmKuIGaY9L4xnTSz1wea9hVC9Jg5MBZlLWbiJZXMqWRANlHHOGalNYRCIel/sE+/gcG5JM3uLjJzBdje4HbibgR+Hxq/IufNCxlQgWCf1/+PL7dP4Vxq4689JoClKCkuzVRFoSX43yFUzPVXeseejXimgIgs3zVI0yjjDOdxdRk9bl53LZKF4ZeFcJA/32qKVENKlA8fhExtGK32tXyWB1aUGuqUrMZDZK+4LPMWeK1Q4KQXWVPmZ4rp7rLbOQM3IPYwrxT10yRT6j55I/AJ3KYamXUVAOCoaarRCGY4cnuc3a1ZC0+lAKR15yG0pQCUNCnkra8USI5pTGa0xE1cHoyZgsqbN/lCYtYFRXQwZVfRT7bfEUyLiiiGpzwq0eBgzqXJdSkFE4cq5CGIVsoNZCnmqvUsEE4TBxy6yeq6a1MMBwnOv2AeXNdcMHcwpF6pfSK4nSb2n/EkiFIN+vCuMN3dmNYrQgypM6GGTyNjyqqihcqYdbGyJl9toinxKHXr2TS3tED9KMq1ELg7b4cudcWqKDSB+VV4x4atsijO2sLwp121x8LMMauWlkKr4xNeD/HAm5MyLhPo/u9K32eAqFg7bj4odtFYKxvtTkd1CSG/afcfUunKtQn5FrKOfbZYdWa8O4d3gNcG5ggJv0GFSRwq3xDZHQQPDsFDnqiEhCBz9rzRHJCZg2gr/2vZq0LMrpQ74drXhTJpG40OP/PPOwSdpfKLBpuZ7KtvozmPPHGokCxj27yQ0+Ff8ExhVkAsvoD98J+rN2AqaSmNtXwro9x4JH7tNS8oY1bwZSsOqhCURewofi+ugKbQe1Shlledi0iakeVoPEuCkLgalaYjmEgauBMxFQdrJdCpW+y+rTI3Wy8cH+k4QxLu5s5EyFL8diu9qWiM14XqFufjHVN7i9QNP9ZP+JdjbiQsQlzMAFrYV9VUook6vWTS0y9u3MU3juPcusS7TRJKFa3oxGoD3MRX/2AxXeYZ/23Ou4CpM66u1OpNEQbVzvQH82HlFKAZ1F4a3fom9bIaW/sCuzLl2FndwhrlylK7CmbGnxIZAKdU0RO5qYIyzGT6BAQ+7Xp3lIf96opc9sMGP4tBliRItlF2/tVO080lbBNE/t5hjVsWwqooDGbP0cBWdFuC9GBoTFcH+m90G1FMyP1CWYSX9q13TOCCO/DytI9jRuz8DFyCgx+RPEUvqqWtNM+rO8QuI7+AhFnu7dDRhlwtqqWn0g/K6GrA1nqyI0RdOMW0gf7GSSSAkx/uH2Z22GSzc0dvp9LHKrL0egrZp4OsKNWO92e7WJZCo5FHiRCO9/Yqqu27bZppiwA20CNtR/jmivRtsY6ylFdw2hxi0OXuxtzsCAY7/Xdp4m1DWVtFlvD966yBomuthyAnaaoL+02tcVqt99RkbVILBqo5Eyo/4Hp8UgENsGwvrsIS89vUop87xhPH1uOaTeaoJcpQYL3mm0cLD3KTxgM0ubUeB81neF2sJsrMURjlFyozWHTVsJnEabfMrVMbUQHk2dywp4032/RRg6D568++BCIgEfR8ATYnIISwGt1wYFGXSP9vg1x6hlKwKmIxIeEj0S5QN03qDIqza1zQnbB56VtGJBAtsseyevlAOmUn/R0W2j9qVC41l/Fj6WgGFwoQW5oOLmszaQ5anXlErhtBQwRSVJ8sjY7CaTyTneDIwVggf967aJAmMbmuwbt49XnL/lqibC/UdcLrTsanNpLsaM2pr+VfZArUkBbxetu4k6Xw5W2Q7j3ScchRIdkBtiMuAYSzSXi95t7F9btRBFCxU8t3Tg3s+1WpU28wTsdnMz36bMBm+oIc/qOYxL2Y3W25/yBi9Ut+17Jthdgcqw2CSQRjiF4WxxMIv2P151wC88gYEhnwcCcdrEu0vR1DkmPdFSU1CVIJidIeNschRo9uxFWXDKhkblwjMYu4dHM/2AbcBK9gM9vjqYcoe6YaagZpbcYPDKeO8y2exlSgbyC09hTG6fq43tN+q7/hEUvHmOUq2TlUHlbFpGbHY5UeMliet0kNe5PdFUIArm1j6OTfNoYw9z1M/be3+o3xp7wTIyvty5zsjxFS4bY4kVUvKo6Ld8CqMHH34TFxHSQiycw1n2I83WNG5gK6V0pTEK6Yv0SqNm38mFt8fq2TMYtHWWcLN/bdD2jz94rIKKbb7iARdEI3e0ryweim5CUXwKA9Sx5vQVq2iXT9LtT5/ZofJ2+4hinBmf02BcGYO6hTVaPIUBNt6M+i5TQTjGz3ri28RxPafCtYsXzhtI7NE8HsOADiV4CgN3xO1Fq/uun6H8bAgrA7vN5olViKiI0qooeKbCU6bCHMRWVNqqD/kssXF4SFM/1yvM9vMomoNJ5ofZBzAm1I7cZnT0WbphaKab9tZPsyxLQ3Ct5hxGo/nDjVr/x3Jsf0gMAx9CBzAwtdwMg5FX/GNW4ov0AQw0G1jf9INHvXyJgO8VoRmGbJB3pvzd85A+pi3AwF2dJp5aoUep/FAW/eu0nSk41Y0wNrQZ0ELP6GsJ/GBFb86r416TPWulT+OlhDDMhrKGHq9927bTp/FSOlpU+/iYYOSKCiPc8LeajQqNAca2rGJ7gLH2qBH5t5uNIk/asM2BlepqxoP6X03MpQxKQw85tthp4Kb/dutHXeZvt81wVRgxZe5aPsXpBYSRboYJtXrZ2NERDcFvt36CkCnYh8HqqxOxysRvs3L4ZXRQKPxb18LA+siMdMBvp1ChfEltzSslPsW+9ev1Lda198UQuyUaeGrbb78k7wXEZrx5s85Vx5ISp99ao8ZLCewftow9djZLWCyyVX6wMOE7FPDDYh5aoqj6WHCUVve+X0c2ZkjGVNVwbSaSelNq03xT2mpSfDlZ/b6IQ/XwZD2JDmOc7k+0MeaL/b+eafsshZhTRNPAditjv94bq5iqEgSVttj+ATVFhM0rfYuzjne5XIr97xATjlaLhzC+mI50TGh2u6saOljb4vw7KPJTHfviW8E/epjxDZnsX+EoTnae13WTIMiS/PBfxf0nDEaV9KDIted56pmV/QMO4SMdD45VQkjS+a+PW5tIt7e+fzj4c/s4/icMdzM1HRrfUUcdddRRRx111FFH/zPEcvr8hd9HTBvSUXqD1WZy88sdAl4YGAZdYNc3vd+ISov3lEWkncHlqjzVUfBiqmsY8Qun4pTBuLf0Gh71F0kb4ODj3fm8i08AaBnnF84AYjmoXDjxQtk/hcH0cU7muLWqfbbp9VYFKzEvHuVtamy37PU2Q624gC+pqeKPYdjuwiopaqkWQlv2jOqoAIeB3zSB6Z9Uv1KDxVlpX4GxEBNOjrMQxaSNrVI2pMNOK2+s8UgIpo16y7vCdQY4YvYlGNeR+674mQ0h+/iHYHe93vnmjRP1xw6KQxErpK0RwFdgVPKSczH6xC6jG/1Z7ontclkoabcEIR+O8t6z20u4HN+EIbjWJypM3T/9qaXJHVMJ2mTiCSv+Ex53BOKx/O5qsHfxEzvw0R+uBp5bY9y0+6FYsz31nt0TajXvu6sBMLjmYHdV5Grlp9cqq8H0ezFRa+RGBbNh3A9ruO4N6hTjbgRL900YjuhjAXTgiqK4yPIfe9R9x4LX1jsmxu00sBZBEOgCM1O8zQ1MYR7YgpqmwtYRqW9gnOInoqCASx1me7AQFcfpvOSHt94RG+L734NxFF2bsbloOUEaJAsxwGumIzrBYe5noMeYEEauJbqRpcNtYpSl6ftiYQdiyHTR3YoLx3EENres5OAf3i2x6L0aGtQqNzJOOy+3gzTrNUSr9AUYV+N9dMSMCb4YUSqfmYEYqAI70GBgHk1cK/BEgangVSi6Pr0Pa/duAQxr4byjngN8jo3sz+ykxCFMToM17/pbr3bYVgowaiQcjzboDb6yGgef0yGIxMRkR3dR1NOr7+KW6Zll5mPZirSbSiKuLqxig5hl4iIUdEt0aJ5N1817ZNjYsa47NGx4jk8DgrI+aaxpNb4K40ruAQaciteTcbaLRNDfrYLF1ZS8FRLxUHwvbxsDDFiNXFn7lQfY4m3JKtO8SYxFrgMNHKhN3YiAqVZfgYG/cIlkm6idQOde1anuiCowVVLsP3IJpdUIqqrZsXA1OFyWVQp19OiuoA2ewFSU+BP8saob0QTgfUfh8vhrnIiV+XMAk5nAOr2nc7voRKLVeLcqe2EBwlgs+GOcRTpHJqU/Iuz8fQjswMkyYNbXdSNCz+W7dgP10qLypQkemKLOM8dFlevMSR3QaqBU38KweLM0i0T3ShGspDcY3AszmOrhAO3cw4DYqdfTvg9j7FR8RYCRc9jYnqdZJFKxIK1GIFbclqQKwwG/jJUEKguM+D37rMC3BRmvMRykb78P41Y2IgsUaqmRIThBxUOr4VecYdUiEc9hBFXtZIPSYHkwdAeDLXvLoXBPG/SGvw9DOFQUTWi9A5elJQ6+BLQauhiVhQcpV7h5B35YEf6thYZj/zBeo7ceohTcw2Pg9sJ7L4BhumV5h/4u2sx0o/KOjOSau4agwPJ9Vl90qzDGzrW30SHjEvfu3CePA1jlv814JVBfeMLNC2AwX+T2j43fURbUQMzLZ5ktklPoEBg1E/HnfI8hmOqqiAtsa7lc5YL5pIZsPHvgVMEBMR4GTAxjvcFddEvx4Jdg3KsLH+xx6qfvIh8/KFw38OfzQwJeCt7rg86KwDX0I/IYozlqKqYvymMdQldMQN8GlpX3UIMt6K13nqYxVdO887pYHW0w6o1Ow+J9zPXQ6fIII97d0lNYZho8JESYHTiRGznBlrfI6f47vo6SlDsZzM8SfiyTHc63yEC4GujhFg8wU/iA62SlrE/wV0ZGxmC1GqCTuCx4iW2wbncN76/w/dEeluPMg457qnXArmOufVc1j6Zeuaabpnm3als7P9MI/kgW97EvM4/H6gO03WqfnwexNE6VyNyLB2tenj9aD2IvBvW1Udl5cE+rR6X2FXrIsTpliRT46NHjkj583htOzrvdeTL0bu/T6P3deeih2oIwZASqSruSiv+rWv18f5sqTtW7+JlzFj8aRz5Pw/3uB9O3bLwQU1RyGFW8tDT1Z3PQzHYwDIwWovXr+8eek+2nQZDO/60CvBr6t1eho4466qijjjrqqKOOOuqoo446+j+j/wLgcJ3aPXywmgAAAABJRU5ErkJggg==;" parent="1" vertex="1">
                    <mxGeometry x="487" y="625" width="28" height="31.11" as="geometry"/>
                </mxCell>
                <mxCell id="DSgFrJyKgC6jByb_c58T-15" value="" style="strokeWidth=1.5;html=1;shape=mxgraph.flowchart.database;whiteSpace=wrap;strokeColor=#7EA6E0;" parent="1" vertex="1">
                    <mxGeometry x="444" y="623" width="40" height="30" as="geometry"/>
                </mxCell>
                <mxCell id="DSgFrJyKgC6jByb_c58T-17" value="" style="endArrow=classic;startArrow=classic;html=1;rounded=0;entryX=0.25;entryY=0;entryDx=0;entryDy=0;exitX=0.25;exitY=1;exitDx=0;exitDy=0;strokeColor=#4D4D4D;" parent="1" source="AP62TqUH0sliwpTxDApQ-8" target="AP62TqUH0sliwpTxDApQ-6" edge="1">
                    <mxGeometry width="50" height="50" relative="1" as="geometry">
                        <mxPoint x="420" y="240" as="sourcePoint"/>
                        <mxPoint x="400" y="410" as="targetPoint"/>
                    </mxGeometry>
                </mxCell>
                <mxCell id="DSgFrJyKgC6jByb_c58T-18" value="" style="strokeWidth=1.5;html=1;shape=mxgraph.flowchart.direct_data;whiteSpace=wrap;strokeColor=#FF8000;" parent="1" vertex="1">
                    <mxGeometry x="577" y="-89.05000000000003" width="50" height="20" as="geometry"/>
                </mxCell>
                <mxCell id="DSgFrJyKgC6jByb_c58T-28" value="EAD Application" style="text;html=1;strokeColor=none;fillColor=none;align=left;verticalAlign=middle;whiteSpace=wrap;rounded=0;fontSize=21;fontFamily=Verdana;fontStyle=1;fontColor=#666666;" parent="1" vertex="1">
                    <mxGeometry x="-270" y="-190" width="220" height="30" as="geometry"/>
                </mxCell>
                <mxCell id="DSgFrJyKgC6jByb_c58T-29" value="" style="endArrow=none;html=1;rounded=0;fontSize=13;strokeWidth=2;strokeColor=#4D4D4D;" parent="1" edge="1">
                    <mxGeometry width="50" height="50" relative="1" as="geometry">
                        <mxPoint x="-237.5" y="-87" as="sourcePoint"/>
                        <mxPoint x="-177.5" y="-87" as="targetPoint"/>
                    </mxGeometry>
                </mxCell>
                <mxCell id="DSgFrJyKgC6jByb_c58T-30" value="" style="endArrow=none;html=1;rounded=0;fontSize=13;dashed=1;strokeWidth=2;strokeColor=#4D4D4D;" parent="1" edge="1">
                    <mxGeometry width="50" height="50" relative="1" as="geometry">
                        <mxPoint x="-139" y="-87" as="sourcePoint"/>
                        <mxPoint x="-79" y="-87" as="targetPoint"/>
                    </mxGeometry>
                </mxCell>
                <mxCell id="DSgFrJyKgC6jByb_c58T-31" value="" style="shape=image;verticalLabelPosition=bottom;labelBackgroundColor=#ffffff;verticalAlign=top;aspect=fixed;imageAspect=0;image=data:image/png,iVBORw0KGgoAAAANSUhEUgAAACIAAAAaCAYAAADSbo4CAAAE5UlEQVRIDc2We0yVZRzHf++4tDlsNc3+SDe2LC+U5maagXhhc3NTKyuztIuWppYznBCmonDkDopyPEcuwlHUg3JZKSNJk6aCcGac6Si0uIwGTCYOElQEOp/2vkfe4YLTAf/x3Z6d7/s+v8vnvL/neX+P8IRc8oRwMGyQO3fuEBMTQ0pKijbS0tIe6z8NCaSwsJADqQe1hA0NDWRlZenJExMTdR0bYeD69ev6vTvCLZDu7m6iTQeQ3KOINYvy8nK6urqwWCx6DrPZrGlTwl6uKosxjwoiPzdPn/8/4RbI9oR4xF6K4EDoZvzucGpqasg5cUKPb82xUlVVhcUrAJQ1oKzlmBLAj0VFuo0r4RZI5dWrjDAnI/QgXa1IexOB77/LyfQMPXbYnmi+mToblNU4lJWgrCJ28iJaW1t1G1fCJcj9+/fp6enR/E/m5SGXfkK46xx52WRkZuqxo9YGUyPzQfkElM857DMPdR2pV2dnJ729vbrtQMIlyMptUbwUlkRokpHKykqWB29AuVWPPLiNPLjF2gvntZh3+YcrszaCfADKZ9g9FxAdHU1JSQkJX+9jx4w9WExHBsqvPxsUpL29nZHBe5FqkKJWJO40vp9+ixISivS2afteVi7jl/wCtu6NIVkmgLKeNlnKimeC2OlvomCqjT/9oWM+bF8cqycdSAwKcuS4FbH+gfwKUvIAKQUpAznVgqwPQeIMyIIgfLy9ES8PNsnLhIgvCWNjuRHo4OYcaJgNtQFwLwj2Tyygurp6IAbt2aAgBacLGb8lEUk6g5xpQ8pBLvYiV0DyGhEvH0TkkeH3bBDN86DZH5oCoDkQrsxswzwpn9AgA3a7feggfR6qc7jJyAvrNyPJZ/EwlSIr1iGjxzwCoUK94jWZ8Oe2UzTzBgdfzGHnjDByjIepq6vrCzfo76BvRPXo6OiguLiY9M1mYiZEUehno3hKFRGjdzHWc+x/QMRvGhKWhFh/QxLzmBi6C8OhLCoqKoa/a04ez2P39IOcnmanJgBnzf3h9hw498YtnvIejSLKozDj/JDz3chlkEsOZznVsu47h++6cGw229DfSEFuAT9Pb6B1LtQ9rPdfgVA6s5ltI9/FIq+zRMbw9POj8PH0REI2IfEGZJcR+aHFCaMucHWhV4F8l0ltbe3QQdSy7Hh1H/eDoHxGC6Yp+awKCCXS+02Qj0C+5AsPX87ZK8iMi0cSDM4tffcmXu8tY/JXBiT2e+fWt8P8LYZBIdQJl2skOjiBiIXxpCcfor6+ntC3l9KlfAjKxyDvYAve7wze3cNc20Xn96X3bzx+txFpiNR6z9ZkE5M2RpJxLGf4IP09LeY0qpW3tC+n2k+OyxRM6am6yZqwMKTiPNLTrjVGjyNpXLt2TZt3OBy63WDC5Rvpc7p84RJWj0Cth6i95LaynBWLFpGZa+0zIWVnBAEbNyCOTuReiwYzLiaSxsZG3caVcAvkQEwiFcrCh+19NVGvLaGpqYljR4/qsbOzs7XyjUiOc64V9chgTORMcbFu40q4BaIGsKRlcNh7DoeUWVrt1YNRZr/uazQatTwZFgty9hS+Cc6m5yp5/zm3QVSnsrIyrFZnOdRX3pdcnYuKitLjpqam0tzcrN+7I4YE0j+gelYxmUyoR0R15OS43hX9fQfSwwYZKNjjPHtiQP4FeNrhOghdgXMAAAAASUVORK5CYII=;" parent="1" vertex="1">
                    <mxGeometry x="326" y="164" width="34" height="26" as="geometry"/>
                </mxCell>
                <mxCell id="DSgFrJyKgC6jByb_c58T-32" value="" style="shape=image;verticalLabelPosition=bottom;labelBackgroundColor=#ffffff;verticalAlign=top;aspect=fixed;imageAspect=0;image=data:image/png,iVBORw0KGgoAAAANSUhEUgAAACIAAAAaCAYAAADSbo4CAAAE5UlEQVRIDc2We0yVZRzHf++4tDlsNc3+SDe2LC+U5maagXhhc3NTKyuztIuWppYznBCmonDkDopyPEcuwlHUg3JZKSNJk6aCcGac6Si0uIwGTCYOElQEOp/2vkfe4YLTAf/x3Z6d7/s+v8vnvL/neX+P8IRc8oRwMGyQO3fuEBMTQ0pKijbS0tIe6z8NCaSwsJADqQe1hA0NDWRlZenJExMTdR0bYeD69ev6vTvCLZDu7m6iTQeQ3KOINYvy8nK6urqwWCx6DrPZrGlTwl6uKosxjwoiPzdPn/8/4RbI9oR4xF6K4EDoZvzucGpqasg5cUKPb82xUlVVhcUrAJQ1oKzlmBLAj0VFuo0r4RZI5dWrjDAnI/QgXa1IexOB77/LyfQMPXbYnmi+mToblNU4lJWgrCJ28iJaW1t1G1fCJcj9+/fp6enR/E/m5SGXfkK46xx52WRkZuqxo9YGUyPzQfkElM857DMPdR2pV2dnJ729vbrtQMIlyMptUbwUlkRokpHKykqWB29AuVWPPLiNPLjF2gvntZh3+YcrszaCfADKZ9g9FxAdHU1JSQkJX+9jx4w9WExHBsqvPxsUpL29nZHBe5FqkKJWJO40vp9+ixISivS2afteVi7jl/wCtu6NIVkmgLKeNlnKimeC2OlvomCqjT/9oWM+bF8cqycdSAwKcuS4FbH+gfwKUvIAKQUpAznVgqwPQeIMyIIgfLy9ES8PNsnLhIgvCWNjuRHo4OYcaJgNtQFwLwj2Tyygurp6IAbt2aAgBacLGb8lEUk6g5xpQ8pBLvYiV0DyGhEvH0TkkeH3bBDN86DZH5oCoDkQrsxswzwpn9AgA3a7feggfR6qc7jJyAvrNyPJZ/EwlSIr1iGjxzwCoUK94jWZ8Oe2UzTzBgdfzGHnjDByjIepq6vrCzfo76BvRPXo6OiguLiY9M1mYiZEUehno3hKFRGjdzHWc+x/QMRvGhKWhFh/QxLzmBi6C8OhLCoqKoa/a04ez2P39IOcnmanJgBnzf3h9hw498YtnvIejSLKozDj/JDz3chlkEsOZznVsu47h++6cGw229DfSEFuAT9Pb6B1LtQ9rPdfgVA6s5ltI9/FIq+zRMbw9POj8PH0REI2IfEGZJcR+aHFCaMucHWhV4F8l0ltbe3QQdSy7Hh1H/eDoHxGC6Yp+awKCCXS+02Qj0C+5AsPX87ZK8iMi0cSDM4tffcmXu8tY/JXBiT2e+fWt8P8LYZBIdQJl2skOjiBiIXxpCcfor6+ntC3l9KlfAjKxyDvYAve7wze3cNc20Xn96X3bzx+txFpiNR6z9ZkE5M2RpJxLGf4IP09LeY0qpW3tC+n2k+OyxRM6am6yZqwMKTiPNLTrjVGjyNpXLt2TZt3OBy63WDC5Rvpc7p84RJWj0Cth6i95LaynBWLFpGZa+0zIWVnBAEbNyCOTuReiwYzLiaSxsZG3caVcAvkQEwiFcrCh+19NVGvLaGpqYljR4/qsbOzs7XyjUiOc64V9chgTORMcbFu40q4BaIGsKRlcNh7DoeUWVrt1YNRZr/uazQatTwZFgty9hS+Cc6m5yp5/zm3QVSnsrIyrFZnOdRX3pdcnYuKitLjpqam0tzcrN+7I4YE0j+gelYxmUyoR0R15OS43hX9fQfSwwYZKNjjPHtiQP4FeNrhOghdgXMAAAAASUVORK5CYII=;" parent="1" vertex="1">
                    <mxGeometry x="745" y="-96.44000000000001" width="34" height="26" as="geometry"/>
                </mxCell>
                <mxCell id="DSgFrJyKgC6jByb_c58T-34" value="Synchronous" style="text;html=1;strokeColor=none;fillColor=none;align=center;verticalAlign=middle;whiteSpace=wrap;rounded=0;dashed=1;dashPattern=1 1;fontSize=12;" parent="1" vertex="1">
                    <mxGeometry x="-240" y="-87" width="60" height="30" as="geometry"/>
                </mxCell>
                <mxCell id="DSgFrJyKgC6jByb_c58T-35" value="Asynchronous" style="text;html=1;strokeColor=none;fillColor=none;align=center;verticalAlign=middle;whiteSpace=wrap;rounded=0;dashed=1;dashPattern=1 1;fontSize=12;" parent="1" vertex="1">
                    <mxGeometry x="-139" y="-87" width="60" height="30" as="geometry"/>
                </mxCell>
                <mxCell id="DSgFrJyKgC6jByb_c58T-36" value="Database PostgreSQL" style="text;html=1;strokeColor=none;fillColor=none;align=center;verticalAlign=middle;whiteSpace=wrap;rounded=0;dashed=1;dashPattern=1 1;fontSize=12;" parent="1" vertex="1">
                    <mxGeometry x="396" y="-70.44" width="134" height="30" as="geometry"/>
                </mxCell>
                <mxCell id="DSgFrJyKgC6jByb_c58T-37" value="Broker RabbitMQ" style="text;html=1;strokeColor=none;fillColor=none;align=center;verticalAlign=middle;whiteSpace=wrap;rounded=0;dashed=1;dashPattern=1 1;fontSize=12;" parent="1" vertex="1">
                    <mxGeometry x="577" y="-70.33" width="120" height="30" as="geometry"/>
                </mxCell>
                <mxCell id="DSgFrJyKgC6jByb_c58T-38" value="JWT" style="text;html=1;strokeColor=none;fillColor=none;align=center;verticalAlign=middle;whiteSpace=wrap;rounded=0;dashed=1;dashPattern=1 1;fontSize=12;" parent="1" vertex="1">
                    <mxGeometry x="732.5" y="-70.44000000000001" width="59" height="30" as="geometry"/>
                </mxCell>
                <mxCell id="DSgFrJyKgC6jByb_c58T-40" value="" style="rounded=0;whiteSpace=wrap;html=1;fillColor=#d5e8d4;strokeColor=#82b366;" parent="1" vertex="1">
                    <mxGeometry x="72.5" y="-113.03" width="75" height="54.89" as="geometry"/>
                </mxCell>
                <mxCell id="DSgFrJyKgC6jByb_c58T-41" value="&lt;div&gt;Microservices Business&lt;/div&gt;&lt;div&gt;Spring Boot&lt;/div&gt;" style="text;html=1;strokeColor=none;fillColor=none;align=center;verticalAlign=middle;whiteSpace=wrap;rounded=0;" parent="1" vertex="1">
                    <mxGeometry x="23.5" y="-50.97" width="179" height="20" as="geometry"/>
                </mxCell>
                <mxCell id="DSgFrJyKgC6jByb_c58T-42" value="" style="rounded=0;whiteSpace=wrap;html=1;fillColor=#f5f5f5;fontColor=#333333;strokeColor=#666666;" parent="1" vertex="1">
                    <mxGeometry x="240" y="-113.03" width="75" height="54.89" as="geometry"/>
                </mxCell>
                <mxCell id="DSgFrJyKgC6jByb_c58T-43" value="Microservices Base&lt;br&gt;Spring Boot + Spring Cloud" style="text;html=1;strokeColor=none;fillColor=none;align=center;verticalAlign=middle;whiteSpace=wrap;rounded=0;" parent="1" vertex="1">
                    <mxGeometry x="179" y="-49.94" width="197" height="20" as="geometry"/>
                </mxCell>
                <mxCell id="DSgFrJyKgC6jByb_c58T-44" value="" style="shape=image;verticalLabelPosition=bottom;labelBackgroundColor=#ffffff;verticalAlign=top;aspect=fixed;imageAspect=0;image=data:image/png,iVBORw0KGgoAAAANSUhEUgAAAFsAAABJCAYAAABSKFoJAAAOlElEQVR4Ae1bh3cU1Rr3P1IskIBBBTn2p4JP37PSIZTQQapg6IqAIiJNQaqYZHeTkEp6QkhCKqQSkpDeey+/d37fZMISye7M7maS49s5Z86WuXPvnd/97ld+3zfPwH0YhsAzho3kHghusA0UAjfYbrANRMDAodyS7QbbQAQMHMot2W6wDUTAwKHcku0G20AEDBzKLdlusB8jMDg0gNr2chQ35aC4KRuZVbHIqIpGRlUM0iujcL82GbUd5WjtacLQ0ODjGyfht0kp2S099civT8Ot4uu4lHEARxNWYm/0F3JuCXsPm0PfwZbQd7Ep5G3siJiHo4mrcDJ5E65lH0FmdRwqWovQ2duKgcH+SQX5pAK7vqMScSUB+D5+GbZHzMXa4NexNOAlOZeZpoHncrMnlps85dNbvntgacBULAl4Ua5vDfsX9kd/hdMp2xBacAFVbQ8xOEkkfsLB7hvoRUXrA8SW+OP7+OVYHThTQCOwBNPbPB0rLS9jlWUmVge+IqdP0KvwCXx15DevrzDPkLayICYP+c6+DsQuRGjhRVS2PphwKZ9QsHv6OxFc8Bv2xy4QMJcPg6QA7IX1wXOwNfwD/Jy8Hhcz9sGUdwpBBecQ8/AGIh9cRXDBefjdP4ETt9fjcNxibA17H2uDZonks48Vlhlgn1yMg7ELkfwoBAODfRMG+oSATV36qKUAfvdOYHXQq1hiekkAoYrYGPIWdkX+G+fSdiHiwRUUNWagubsOXX3tGBjqxxCGngCrf7APzV11qOuoQHFjDsy5p0SHfxP5MVZavETiCfZS01RsDHlTrrd0NzzRh1E/DAebYCWWWsSwreD2t7wsW35t8CwciFmAoPyzKKxPR+9At0MYUD9393cgty4FlzMPYmfEPJFwAk5pp2o6cXsDHjbmONS/MzcZCjbduIQyi3gSy0xTBWhu9Q0338CVrMOoaCkCVYurjv7BXtyvvY3jST5iCziWSHnAVOyN/lI8HleNpaUfw8CmDxxfasbmkHdEj67iFrfMwMHYBUivikJnX5uW+TrUhirGkncaOyM/EummsV0mgH9hKOCGgR1fahL/mAaLQHubPHEscTXKmvMcAlDvTVzsrOpY7L71CZablTksNU0T3z2vLlVvdw61NwTszOpYbA55e+QhqTePJ62eEHcsuyYBu2/9Z2R3UZ3tj/lK/HGHENRx07iDTQ/hm8hPxHcWiRagfVDZWqxjmq5t+gTggV5YHPCieD+jPR3Xjorxza7TXTudsl0iPNHR5uk4nrRmQoFWAbxXk4Q9tz4d9lCmY13w6xJYjSe/4nLJ7u7vRHN3vRBEf937UaI8+rvU1dy+5S2F6vNO+GdqRQTWBc8ZiT7pFZU2547bvFwCdu9AD1q660FDcy7tGxyImY/t4R9ibfBsxb0zT8faoNmIeeg3bg/ytI4bOqtt+usMkhiZqkab/MofGQfQ1tP0tO6c/s9psOs7qxCcfx4n72zG5tB3JVRWSSGVKKJva8n7FfSzjTo6epvx8+0NKGzIsDlkdXuphPJqWO8T9BqSyoJt3uPoRafAzq5OkNCYxBAny3BbOAmR5FmyRUmDXs8+go7eFkfnqPu+noEu3Mg5LrYiqvi63fsji69itWWmEvCYpuFCxj679zjSwCGwCRxJnV2RH2NJwGNeg0wcyaDv4pdKEBH98AaKGrKE13Bkco7c09PfBUveGawJmoUlAVNxNm2n3W7IvZDIUuhbD4kHChrS7d6nt4FusKkKrmX/ICydGv4yQPGN+hzmvFOSPWnorDRUZagP3TugAO0T+JrsMPLeuyI/QmNXjdpkzM/QwgvCm5PG5S4l3ctERLsLd6QusAk0sye04KqOI2dMSS5ouDvmgxhxgWkxhuTUubQVBI0cN106ptHsHfUdFdgZ8REY5KwKnCmLRZbwt7vfusyD0gV2bImfTF7livkgpDTJPUzE0TfYh8bOasSVBuBIvDfWBM3GCvN0q6SCwr+EF13WNL2woktYFeglQCssIbNCHjgUt1h4HWftjmawSVl+HfqeRIIrzS+LWxecf87wlBN3F9NndDOD8s/hSII3aKDJVxMgNZujfi72f1709tDQkzz409Dv6G0F7QxZQiYuuDPYJ3X5mqDXcCXzsFNuoSawu/o68GPSWsnzcYsx50d/um+w92lzdvg/ctE0cOUtRcioikVmVRzSK6MRVfwn6FWYck/hatZ3+On2OtnyK8wKELQdKrijPzlXZmmauus0z0t2S0mA8DdUk4qUK+m5S5mH0N7brLkv64aawE4pDxc+WF1l36jPJNNi3ZEz37loLEdgquu3u3vwbdRnkg7bFv6BkuoKni0qYpnJYzix6yFSx4UfDS5/W+crec+eqE9R1V6ie4oNnVU4k7pjRMIl2WGeIUkJZoj0HnbB7urvwLFEH3DSlCDF6Q/SO86Y7Ql0WNEfkj1hlMktS5WgZFWYWVEkigs9FrijAWeZg/of+2O5w6OW/DHnYOtCc3etRJmMhkk7eJtnyDwK6vU7BHbBvlMeJgBTf5EHPpq4ElQrrjjIo4QUXhD9z8XUA6gKpvUnF4NGm2kv6nGqAAoI/2Mxj6MHn9f//gkxnopKUbj42o5Hurq0Cza3NY0MV5VGIqU8TNcAYzVmnvBa1hEJPii91qA5+p1+Nd3QH5PWjKgSLgADrzvloWNNRdP/XX1tEktYu7yxD/10VWHZBJtJV1YbLQ54Qbbznlv/FcJJ0+zsNGKdyEqWGgz7xI4CrN5HEHaEz0N40aXh9Ndjo7nA71nJfdqZkt3L8SUBsgsVFtMTh+OWgHpd62ETbCZgGZJTfSwNmIazabvQN9Cjte8x21FP07tZ5D/FJRLNCHbjzTfEYyEnQjBUI7ky0EvUE2sDnT2o9ih8tCk0llRV92qTNHdrE2xGXpw09dRi/xdEv2ru2UZD1vExOqMdUCXT0U9Gixtuvin+8d3KKKk7sVZL1Nnrb85BXl2KjRlpvxTz8C9hNqmeFvk/B1PuSc032wQ7odSMhf7PCyAL/aYgqSxQc8e2GoYVXgT7cxRg3sfMD1XHxpA3BOiqthJ8H+8tXpN1v9yVijfimqQFy9gY1tM+sNTtTOp2kM/XctgEm3p1vt+zI2DfeRSipU+7bf7MOSpG1xoUPd+pJrjbqOKSy0NQ11mBc6m7lDznKN+b3DrL01wVgLX1NosRZrBEwA/HLUW7xmSDPrDLXQR29g+ilvQArERyXmJQqdouZR6Qgkym4E6nPs5zWvfJRaFKCcw/bVcA9DRgadwivymy4IwNatpLNd1uE2xy1lxBRT9NAfWVKw5SsVrVCNWF4ttOF/vB0Jvg0ViRyzh15+thTt3rb2qJng5ruV1dm3Ihw1fmz8Wk3als01YpYBPs4sZssN6ZRoh10pczD+vyK8daGBorGi1rQ/akRLIGkCXAClXKpMT+mPlS+lvbXibdljXn4+fkDQolavk70Fwk6tSLGXvHmoZD/5MI++XOFtmZBJvzrm7TRgXYBLuuoxy+0Z/LpGmMGLYzGHH2YBXr+bu7sWg4WBIJscwQKSHAG2++KdwIOZIrmYcQVXxtZKsy5XW/LhkH4xaJRKsu3pOLRfXhKUX1eqM8e8/W298lONAWUKp3hM9FQ5c2X9sm2OIP3147sorkBwrqXZMuKm7MkkokGhmCzTIHpqZOp24T7yKzKgYk9FXCh0WS2dXxQpeK22iZMeJLq0BT3XG30APh2wtlDvIhtgBnxn5fzHxFAM2eOBy/RDMLaBNsDkqSiIQ89SaBIc3pqkIWkjkBub8g8sEV8YP5BsLoYvXS5jykVkQKpUuOmRwKpZbAymml0xUeZA5Op2x1KStpDT5rTWgLqKYW+7+IK1mHMKCxasAu2HwnZUfEXJEWbhuqFWcLWRiFplVEIqcm8W8RKXN+NGjkr1nTQR+Z79Ys9HtOpIlAK9LrKduYbxpsCnlL5ngieT3uVt5CW0+jNT4u/c4IdZGfEntQDSaUmDX3bxdsSjH1K40NQ1RKOHN9/U68iZVVHQ+fwFewJfQdUQ2cLTMpte2PhJ0LzD+DC+m+EjD8kLACRxJWSPaEGRSex5JW49eUrfgjYz8sub+Kl8SaQmfTVvZQo9fBxafQUbq3hb+vKz9pF2xOgIUuvtFfYJnZUwCnJ5HoRDRJPoGlBtS1KotI9cEMCKuUqJ9pRLnQrT2Nkmds6qqBejKT4gqOxh641tcHBgdEAKjGVE/nz+yjFBPrZja/awKbPZBOVGpEGFh4iEuYXZNos/OxLhIobne+7jHe0jjWHPT+zxiDu5r5V9qubeEf6rYLmsFmLd+plK9FX9J7YLBDirFwHIpZ9AIx3u3JGDLeUA0j3WC++6P30Aw2O6YrdiR+uRBA9G85KPOE5FDo//7TDhJMfDYhnoY9INouZoK6HchW6QKbYJY15w6XajGNpagUpp0uZx5CUUPmPwJ0psFYKnE+bbd4QuJqDrOMB2IXoLy1yCG50g02RyltyhWvQCI/s/J2rURTEfNwPeeolCA8aMgCozcmjFmeMJkPRsWMlvnOe05NEi6k7xVPiTuXzyUZJZMHDsYuwoPGTIcfxSGwOVp9ZyXOpu6QKI5BDydFCWBgQd+XLhLfMqDEs9aDZcUsqplsJ98S5hx/SlonlU8srbP24/md3sfJO5tQ0nTPYaB5o8Ng82ZWfwYXnMO+6C/FlaMB4eTUk5JBHcdTfeF/sn3Sw+L8OFfOX5FkxeMgPUGWkSXFfFZnD6fA5uD0hensM9Bhfu7bqE9FErxJLA2TS3yASX8Oz5eCwioCcitMHjd1VTuL8cj9ToOt9sQ3rbj6rGYNLfwdv6f7SoaEksEFYJg/WU/Oj/NkWduNnGO4VXxVV9ZcxcDep8vAHj0QjQ7T/OWthShpui98CjmVyXhyfnyxSk9Zwujn1fJ73MDWMvj/Wxs32AauuBtsN9gGImDgUG7JdoNtIAIGDuWWbDfYBiJg4FBuyXaDbSACBg71P1ciML+5O9kxAAAAAElFTkSuQmCC;" parent="1" vertex="1">
                    <mxGeometry x="204" y="695.94" width="30" height="24.06" as="geometry"/>
                </mxCell>
                <mxCell id="DSgFrJyKgC6jByb_c58T-45" value="" style="shape=image;verticalLabelPosition=bottom;labelBackgroundColor=#ffffff;verticalAlign=top;aspect=fixed;imageAspect=0;image=data:image/png,iVBORw0KGgoAAAANSUhEUgAAAFsAAABJCAYAAABSKFoJAAAOlElEQVR4Ae1bh3cU1Rr3P1IskIBBBTn2p4JP37PSIZTQQapg6IqAIiJNQaqYZHeTkEp6QkhCKqQSkpDeey+/d37fZMISye7M7maS49s5Z86WuXPvnd/97ld+3zfPwH0YhsAzho3kHghusA0UAjfYbrANRMDAodyS7QbbQAQMHMot2W6wDUTAwKHcku0G20AEDBzKLdlusB8jMDg0gNr2chQ35aC4KRuZVbHIqIpGRlUM0iujcL82GbUd5WjtacLQ0ODjGyfht0kp2S099civT8Ot4uu4lHEARxNWYm/0F3JuCXsPm0PfwZbQd7Ep5G3siJiHo4mrcDJ5E65lH0FmdRwqWovQ2duKgcH+SQX5pAK7vqMScSUB+D5+GbZHzMXa4NexNOAlOZeZpoHncrMnlps85dNbvntgacBULAl4Ua5vDfsX9kd/hdMp2xBacAFVbQ8xOEkkfsLB7hvoRUXrA8SW+OP7+OVYHThTQCOwBNPbPB0rLS9jlWUmVge+IqdP0KvwCXx15DevrzDPkLayICYP+c6+DsQuRGjhRVS2PphwKZ9QsHv6OxFc8Bv2xy4QMJcPg6QA7IX1wXOwNfwD/Jy8Hhcz9sGUdwpBBecQ8/AGIh9cRXDBefjdP4ETt9fjcNxibA17H2uDZonks48Vlhlgn1yMg7ELkfwoBAODfRMG+oSATV36qKUAfvdOYHXQq1hiekkAoYrYGPIWdkX+G+fSdiHiwRUUNWagubsOXX3tGBjqxxCGngCrf7APzV11qOuoQHFjDsy5p0SHfxP5MVZavETiCfZS01RsDHlTrrd0NzzRh1E/DAebYCWWWsSwreD2t7wsW35t8CwciFmAoPyzKKxPR+9At0MYUD9393cgty4FlzMPYmfEPJFwAk5pp2o6cXsDHjbmONS/MzcZCjbduIQyi3gSy0xTBWhu9Q0338CVrMOoaCkCVYurjv7BXtyvvY3jST5iCziWSHnAVOyN/lI8HleNpaUfw8CmDxxfasbmkHdEj67iFrfMwMHYBUivikJnX5uW+TrUhirGkncaOyM/EummsV0mgH9hKOCGgR1fahL/mAaLQHubPHEscTXKmvMcAlDvTVzsrOpY7L71CZablTksNU0T3z2vLlVvdw61NwTszOpYbA55e+QhqTePJ62eEHcsuyYBu2/9Z2R3UZ3tj/lK/HGHENRx07iDTQ/hm8hPxHcWiRagfVDZWqxjmq5t+gTggV5YHPCieD+jPR3Xjorxza7TXTudsl0iPNHR5uk4nrRmQoFWAbxXk4Q9tz4d9lCmY13w6xJYjSe/4nLJ7u7vRHN3vRBEf937UaI8+rvU1dy+5S2F6vNO+GdqRQTWBc8ZiT7pFZU2547bvFwCdu9AD1q660FDcy7tGxyImY/t4R9ibfBsxb0zT8faoNmIeeg3bg/ytI4bOqtt+usMkhiZqkab/MofGQfQ1tP0tO6c/s9psOs7qxCcfx4n72zG5tB3JVRWSSGVKKJva8n7FfSzjTo6epvx8+0NKGzIsDlkdXuphPJqWO8T9BqSyoJt3uPoRafAzq5OkNCYxBAny3BbOAmR5FmyRUmDXs8+go7eFkfnqPu+noEu3Mg5LrYiqvi63fsji69itWWmEvCYpuFCxj679zjSwCGwCRxJnV2RH2NJwGNeg0wcyaDv4pdKEBH98AaKGrKE13Bkco7c09PfBUveGawJmoUlAVNxNm2n3W7IvZDIUuhbD4kHChrS7d6nt4FusKkKrmX/ICydGv4yQPGN+hzmvFOSPWnorDRUZagP3TugAO0T+JrsMPLeuyI/QmNXjdpkzM/QwgvCm5PG5S4l3ctERLsLd6QusAk0sye04KqOI2dMSS5ouDvmgxhxgWkxhuTUubQVBI0cN106ptHsHfUdFdgZ8REY5KwKnCmLRZbwt7vfusyD0gV2bImfTF7livkgpDTJPUzE0TfYh8bOasSVBuBIvDfWBM3GCvN0q6SCwr+EF13WNL2woktYFeglQCssIbNCHjgUt1h4HWftjmawSVl+HfqeRIIrzS+LWxecf87wlBN3F9NndDOD8s/hSII3aKDJVxMgNZujfi72f1709tDQkzz409Dv6G0F7QxZQiYuuDPYJ3X5mqDXcCXzsFNuoSawu/o68GPSWsnzcYsx50d/um+w92lzdvg/ctE0cOUtRcioikVmVRzSK6MRVfwn6FWYck/hatZ3+On2OtnyK8wKELQdKrijPzlXZmmauus0z0t2S0mA8DdUk4qUK+m5S5mH0N7brLkv64aawE4pDxc+WF1l36jPJNNi3ZEz37loLEdgquu3u3vwbdRnkg7bFv6BkuoKni0qYpnJYzix6yFSx4UfDS5/W+crec+eqE9R1V6ie4oNnVU4k7pjRMIl2WGeIUkJZoj0HnbB7urvwLFEH3DSlCDF6Q/SO86Y7Ql0WNEfkj1hlMktS5WgZFWYWVEkigs9FrijAWeZg/of+2O5w6OW/DHnYOtCc3etRJmMhkk7eJtnyDwK6vU7BHbBvlMeJgBTf5EHPpq4ElQrrjjIo4QUXhD9z8XUA6gKpvUnF4NGm2kv6nGqAAoI/2Mxj6MHn9f//gkxnopKUbj42o5Hurq0Cza3NY0MV5VGIqU8TNcAYzVmnvBa1hEJPii91qA5+p1+Nd3QH5PWjKgSLgADrzvloWNNRdP/XX1tEktYu7yxD/10VWHZBJtJV1YbLQ54Qbbznlv/FcJJ0+zsNGKdyEqWGgz7xI4CrN5HEHaEz0N40aXh9Ndjo7nA71nJfdqZkt3L8SUBsgsVFtMTh+OWgHpd62ETbCZgGZJTfSwNmIazabvQN9Cjte8x21FP07tZ5D/FJRLNCHbjzTfEYyEnQjBUI7ky0EvUE2sDnT2o9ih8tCk0llRV92qTNHdrE2xGXpw09dRi/xdEv2ru2UZD1vExOqMdUCXT0U9Gixtuvin+8d3KKKk7sVZL1Nnrb85BXl2KjRlpvxTz8C9hNqmeFvk/B1PuSc032wQ7odSMhf7PCyAL/aYgqSxQc8e2GoYVXgT7cxRg3sfMD1XHxpA3BOiqthJ8H+8tXpN1v9yVijfimqQFy9gY1tM+sNTtTOp2kM/XctgEm3p1vt+zI2DfeRSipU+7bf7MOSpG1xoUPd+pJrjbqOKSy0NQ11mBc6m7lDznKN+b3DrL01wVgLX1NosRZrBEwA/HLUW7xmSDPrDLXQR29g+ilvQArERyXmJQqdouZR6Qgkym4E6nPs5zWvfJRaFKCcw/bVcA9DRgadwivymy4IwNatpLNd1uE2xy1lxBRT9NAfWVKw5SsVrVCNWF4ttOF/vB0Jvg0ViRyzh15+thTt3rb2qJng5ruV1dm3Ihw1fmz8Wk3als01YpYBPs4sZssN6ZRoh10pczD+vyK8daGBorGi1rQ/akRLIGkCXAClXKpMT+mPlS+lvbXibdljXn4+fkDQolavk70Fwk6tSLGXvHmoZD/5MI++XOFtmZBJvzrm7TRgXYBLuuoxy+0Z/LpGmMGLYzGHH2YBXr+bu7sWg4WBIJscwQKSHAG2++KdwIOZIrmYcQVXxtZKsy5XW/LhkH4xaJRKsu3pOLRfXhKUX1eqM8e8/W298lONAWUKp3hM9FQ5c2X9sm2OIP3147sorkBwrqXZMuKm7MkkokGhmCzTIHpqZOp24T7yKzKgYk9FXCh0WS2dXxQpeK22iZMeJLq0BT3XG30APh2wtlDvIhtgBnxn5fzHxFAM2eOBy/RDMLaBNsDkqSiIQ89SaBIc3pqkIWkjkBub8g8sEV8YP5BsLoYvXS5jykVkQKpUuOmRwKpZbAymml0xUeZA5Op2x1KStpDT5rTWgLqKYW+7+IK1mHMKCxasAu2HwnZUfEXJEWbhuqFWcLWRiFplVEIqcm8W8RKXN+NGjkr1nTQR+Z79Ys9HtOpIlAK9LrKduYbxpsCnlL5ngieT3uVt5CW0+jNT4u/c4IdZGfEntQDSaUmDX3bxdsSjH1K40NQ1RKOHN9/U68iZVVHQ+fwFewJfQdUQ2cLTMpte2PhJ0LzD+DC+m+EjD8kLACRxJWSPaEGRSex5JW49eUrfgjYz8sub+Kl8SaQmfTVvZQo9fBxafQUbq3hb+vKz9pF2xOgIUuvtFfYJnZUwCnJ5HoRDRJPoGlBtS1KotI9cEMCKuUqJ9pRLnQrT2Nkmds6qqBejKT4gqOxh641tcHBgdEAKjGVE/nz+yjFBPrZja/awKbPZBOVGpEGFh4iEuYXZNos/OxLhIobne+7jHe0jjWHPT+zxiDu5r5V9qubeEf6rYLmsFmLd+plK9FX9J7YLBDirFwHIpZ9AIx3u3JGDLeUA0j3WC++6P30Aw2O6YrdiR+uRBA9G85KPOE5FDo//7TDhJMfDYhnoY9INouZoK6HchW6QKbYJY15w6XajGNpagUpp0uZx5CUUPmPwJ0psFYKnE+bbd4QuJqDrOMB2IXoLy1yCG50g02RyltyhWvQCI/s/J2rURTEfNwPeeolCA8aMgCozcmjFmeMJkPRsWMlvnOe05NEi6k7xVPiTuXzyUZJZMHDsYuwoPGTIcfxSGwOVp9ZyXOpu6QKI5BDydFCWBgQd+XLhLfMqDEs9aDZcUsqplsJ98S5hx/SlonlU8srbP24/md3sfJO5tQ0nTPYaB5o8Ng82ZWfwYXnMO+6C/FlaMB4eTUk5JBHcdTfeF/sn3Sw+L8OFfOX5FkxeMgPUGWkSXFfFZnD6fA5uD0hensM9Bhfu7bqE9FErxJLA2TS3yASX8Oz5eCwioCcitMHjd1VTuL8cj9ToOt9sQ3rbj6rGYNLfwdv6f7SoaEksEFYJg/WU/Oj/NkWduNnGO4VXxVV9ZcxcDep8vAHj0QjQ7T/OWthShpui98CjmVyXhyfnyxSk9Zwujn1fJ73MDWMvj/Wxs32AauuBtsN9gGImDgUG7JdoNtIAIGDuWWbDfYBiJg4FBuyXaDbSACBg71P1ciML+5O9kxAAAAAElFTkSuQmCC;" parent="1" vertex="1">
                    <mxGeometry x="32" y="692.97" width="30" height="24.06" as="geometry"/>
                </mxCell>
                <mxCell id="DSgFrJyKgC6jByb_c58T-46" value="" style="shape=image;verticalLabelPosition=bottom;labelBackgroundColor=#ffffff;verticalAlign=top;aspect=fixed;imageAspect=0;image=data:image/png,iVBORw0KGgoAAAANSUhEUgAAAFsAAABJCAYAAABSKFoJAAAOlElEQVR4Ae1bh3cU1Rr3P1IskIBBBTn2p4JP37PSIZTQQapg6IqAIiJNQaqYZHeTkEp6QkhCKqQSkpDeey+/d37fZMISye7M7maS49s5Z86WuXPvnd/97ld+3zfPwH0YhsAzho3kHghusA0UAjfYbrANRMDAodyS7QbbQAQMHMot2W6wDUTAwKHcku0G20AEDBzKLdlusB8jMDg0gNr2chQ35aC4KRuZVbHIqIpGRlUM0iujcL82GbUd5WjtacLQ0ODjGyfht0kp2S099civT8Ot4uu4lHEARxNWYm/0F3JuCXsPm0PfwZbQd7Ep5G3siJiHo4mrcDJ5E65lH0FmdRwqWovQ2duKgcH+SQX5pAK7vqMScSUB+D5+GbZHzMXa4NexNOAlOZeZpoHncrMnlps85dNbvntgacBULAl4Ua5vDfsX9kd/hdMp2xBacAFVbQ8xOEkkfsLB7hvoRUXrA8SW+OP7+OVYHThTQCOwBNPbPB0rLS9jlWUmVge+IqdP0KvwCXx15DevrzDPkLayICYP+c6+DsQuRGjhRVS2PphwKZ9QsHv6OxFc8Bv2xy4QMJcPg6QA7IX1wXOwNfwD/Jy8Hhcz9sGUdwpBBecQ8/AGIh9cRXDBefjdP4ETt9fjcNxibA17H2uDZonks48Vlhlgn1yMg7ELkfwoBAODfRMG+oSATV36qKUAfvdOYHXQq1hiekkAoYrYGPIWdkX+G+fSdiHiwRUUNWagubsOXX3tGBjqxxCGngCrf7APzV11qOuoQHFjDsy5p0SHfxP5MVZavETiCfZS01RsDHlTrrd0NzzRh1E/DAebYCWWWsSwreD2t7wsW35t8CwciFmAoPyzKKxPR+9At0MYUD9393cgty4FlzMPYmfEPJFwAk5pp2o6cXsDHjbmONS/MzcZCjbduIQyi3gSy0xTBWhu9Q0338CVrMOoaCkCVYurjv7BXtyvvY3jST5iCziWSHnAVOyN/lI8HleNpaUfw8CmDxxfasbmkHdEj67iFrfMwMHYBUivikJnX5uW+TrUhirGkncaOyM/EummsV0mgH9hKOCGgR1fahL/mAaLQHubPHEscTXKmvMcAlDvTVzsrOpY7L71CZablTksNU0T3z2vLlVvdw61NwTszOpYbA55e+QhqTePJ62eEHcsuyYBu2/9Z2R3UZ3tj/lK/HGHENRx07iDTQ/hm8hPxHcWiRagfVDZWqxjmq5t+gTggV5YHPCieD+jPR3Xjorxza7TXTudsl0iPNHR5uk4nrRmQoFWAbxXk4Q9tz4d9lCmY13w6xJYjSe/4nLJ7u7vRHN3vRBEf937UaI8+rvU1dy+5S2F6vNO+GdqRQTWBc8ZiT7pFZU2547bvFwCdu9AD1q660FDcy7tGxyImY/t4R9ibfBsxb0zT8faoNmIeeg3bg/ytI4bOqtt+usMkhiZqkab/MofGQfQ1tP0tO6c/s9psOs7qxCcfx4n72zG5tB3JVRWSSGVKKJva8n7FfSzjTo6epvx8+0NKGzIsDlkdXuphPJqWO8T9BqSyoJt3uPoRafAzq5OkNCYxBAny3BbOAmR5FmyRUmDXs8+go7eFkfnqPu+noEu3Mg5LrYiqvi63fsji69itWWmEvCYpuFCxj679zjSwCGwCRxJnV2RH2NJwGNeg0wcyaDv4pdKEBH98AaKGrKE13Bkco7c09PfBUveGawJmoUlAVNxNm2n3W7IvZDIUuhbD4kHChrS7d6nt4FusKkKrmX/ICydGv4yQPGN+hzmvFOSPWnorDRUZagP3TugAO0T+JrsMPLeuyI/QmNXjdpkzM/QwgvCm5PG5S4l3ctERLsLd6QusAk0sye04KqOI2dMSS5ouDvmgxhxgWkxhuTUubQVBI0cN106ptHsHfUdFdgZ8REY5KwKnCmLRZbwt7vfusyD0gV2bImfTF7livkgpDTJPUzE0TfYh8bOasSVBuBIvDfWBM3GCvN0q6SCwr+EF13WNL2woktYFeglQCssIbNCHjgUt1h4HWftjmawSVl+HfqeRIIrzS+LWxecf87wlBN3F9NndDOD8s/hSII3aKDJVxMgNZujfi72f1709tDQkzz409Dv6G0F7QxZQiYuuDPYJ3X5mqDXcCXzsFNuoSawu/o68GPSWsnzcYsx50d/um+w92lzdvg/ctE0cOUtRcioikVmVRzSK6MRVfwn6FWYck/hatZ3+On2OtnyK8wKELQdKrijPzlXZmmauus0z0t2S0mA8DdUk4qUK+m5S5mH0N7brLkv64aawE4pDxc+WF1l36jPJNNi3ZEz37loLEdgquu3u3vwbdRnkg7bFv6BkuoKni0qYpnJYzix6yFSx4UfDS5/W+crec+eqE9R1V6ie4oNnVU4k7pjRMIl2WGeIUkJZoj0HnbB7urvwLFEH3DSlCDF6Q/SO86Y7Ql0WNEfkj1hlMktS5WgZFWYWVEkigs9FrijAWeZg/of+2O5w6OW/DHnYOtCc3etRJmMhkk7eJtnyDwK6vU7BHbBvlMeJgBTf5EHPpq4ElQrrjjIo4QUXhD9z8XUA6gKpvUnF4NGm2kv6nGqAAoI/2Mxj6MHn9f//gkxnopKUbj42o5Hurq0Cza3NY0MV5VGIqU8TNcAYzVmnvBa1hEJPii91qA5+p1+Nd3QH5PWjKgSLgADrzvloWNNRdP/XX1tEktYu7yxD/10VWHZBJtJV1YbLQ54Qbbznlv/FcJJ0+zsNGKdyEqWGgz7xI4CrN5HEHaEz0N40aXh9Ndjo7nA71nJfdqZkt3L8SUBsgsVFtMTh+OWgHpd62ETbCZgGZJTfSwNmIazabvQN9Cjte8x21FP07tZ5D/FJRLNCHbjzTfEYyEnQjBUI7ky0EvUE2sDnT2o9ih8tCk0llRV92qTNHdrE2xGXpw09dRi/xdEv2ru2UZD1vExOqMdUCXT0U9Gixtuvin+8d3KKKk7sVZL1Nnrb85BXl2KjRlpvxTz8C9hNqmeFvk/B1PuSc032wQ7odSMhf7PCyAL/aYgqSxQc8e2GoYVXgT7cxRg3sfMD1XHxpA3BOiqthJ8H+8tXpN1v9yVijfimqQFy9gY1tM+sNTtTOp2kM/XctgEm3p1vt+zI2DfeRSipU+7bf7MOSpG1xoUPd+pJrjbqOKSy0NQ11mBc6m7lDznKN+b3DrL01wVgLX1NosRZrBEwA/HLUW7xmSDPrDLXQR29g+ilvQArERyXmJQqdouZR6Qgkym4E6nPs5zWvfJRaFKCcw/bVcA9DRgadwivymy4IwNatpLNd1uE2xy1lxBRT9NAfWVKw5SsVrVCNWF4ttOF/vB0Jvg0ViRyzh15+thTt3rb2qJng5ruV1dm3Ihw1fmz8Wk3als01YpYBPs4sZssN6ZRoh10pczD+vyK8daGBorGi1rQ/akRLIGkCXAClXKpMT+mPlS+lvbXibdljXn4+fkDQolavk70Fwk6tSLGXvHmoZD/5MI++XOFtmZBJvzrm7TRgXYBLuuoxy+0Z/LpGmMGLYzGHH2YBXr+bu7sWg4WBIJscwQKSHAG2++KdwIOZIrmYcQVXxtZKsy5XW/LhkH4xaJRKsu3pOLRfXhKUX1eqM8e8/W298lONAWUKp3hM9FQ5c2X9sm2OIP3147sorkBwrqXZMuKm7MkkokGhmCzTIHpqZOp24T7yKzKgYk9FXCh0WS2dXxQpeK22iZMeJLq0BT3XG30APh2wtlDvIhtgBnxn5fzHxFAM2eOBy/RDMLaBNsDkqSiIQ89SaBIc3pqkIWkjkBub8g8sEV8YP5BsLoYvXS5jykVkQKpUuOmRwKpZbAymml0xUeZA5Op2x1KStpDT5rTWgLqKYW+7+IK1mHMKCxasAu2HwnZUfEXJEWbhuqFWcLWRiFplVEIqcm8W8RKXN+NGjkr1nTQR+Z79Ys9HtOpIlAK9LrKduYbxpsCnlL5ngieT3uVt5CW0+jNT4u/c4IdZGfEntQDSaUmDX3bxdsSjH1K40NQ1RKOHN9/U68iZVVHQ+fwFewJfQdUQ2cLTMpte2PhJ0LzD+DC+m+EjD8kLACRxJWSPaEGRSex5JW49eUrfgjYz8sub+Kl8SaQmfTVvZQo9fBxafQUbq3hb+vKz9pF2xOgIUuvtFfYJnZUwCnJ5HoRDRJPoGlBtS1KotI9cEMCKuUqJ9pRLnQrT2Nkmds6qqBejKT4gqOxh641tcHBgdEAKjGVE/nz+yjFBPrZja/awKbPZBOVGpEGFh4iEuYXZNos/OxLhIobne+7jHe0jjWHPT+zxiDu5r5V9qubeEf6rYLmsFmLd+plK9FX9J7YLBDirFwHIpZ9AIx3u3JGDLeUA0j3WC++6P30Aw2O6YrdiR+uRBA9G85KPOE5FDo//7TDhJMfDYhnoY9INouZoK6HchW6QKbYJY15w6XajGNpagUpp0uZx5CUUPmPwJ0psFYKnE+bbd4QuJqDrOMB2IXoLy1yCG50g02RyltyhWvQCI/s/J2rURTEfNwPeeolCA8aMgCozcmjFmeMJkPRsWMlvnOe05NEi6k7xVPiTuXzyUZJZMHDsYuwoPGTIcfxSGwOVp9ZyXOpu6QKI5BDydFCWBgQd+XLhLfMqDEs9aDZcUsqplsJ98S5hx/SlonlU8srbP24/md3sfJO5tQ0nTPYaB5o8Ng82ZWfwYXnMO+6C/FlaMB4eTUk5JBHcdTfeF/sn3Sw+L8OFfOX5FkxeMgPUGWkSXFfFZnD6fA5uD0hensM9Bhfu7bqE9FErxJLA2TS3yASX8Oz5eCwioCcitMHjd1VTuL8cj9ToOt9sQ3rbj6rGYNLfwdv6f7SoaEksEFYJg/WU/Oj/NkWduNnGO4VXxVV9ZcxcDep8vAHj0QjQ7T/OWthShpui98CjmVyXhyfnyxSk9Zwujn1fJ73MDWMvj/Wxs32AauuBtsN9gGImDgUG7JdoNtIAIGDuWWbDfYBiJg4FBuyXaDbSACBg71P1ciML+5O9kxAAAAAElFTkSuQmCC;" parent="1" vertex="1">
                    <mxGeometry x="-38" y="395.94000000000005" width="30" height="24.06" as="geometry"/>
                </mxCell>
                <mxCell id="DSgFrJyKgC6jByb_c58T-47" value="" style="strokeWidth=1.5;html=1;shape=mxgraph.flowchart.database;whiteSpace=wrap;strokeColor=#808080;" parent="1" vertex="1">
                    <mxGeometry x="589" y="677" width="130" height="68.55" as="geometry"/>
                </mxCell>
                <mxCell id="DSgFrJyKgC6jByb_c58T-48" value="Logs" style="text;html=1;strokeColor=none;fillColor=none;align=center;verticalAlign=middle;whiteSpace=wrap;rounded=0;" parent="1" vertex="1">
                    <mxGeometry x="634" y="709.97" width="40" height="20" as="geometry"/>
                </mxCell>
                <mxCell id="DSgFrJyKgC6jByb_c58T-49" value="" style="strokeWidth=1.5;html=1;shape=mxgraph.flowchart.database;whiteSpace=wrap;strokeColor=#808080;" parent="1" vertex="1">
                    <mxGeometry x="829.5" y="-97.39" width="67" height="40" as="geometry"/>
                </mxCell>
                <mxCell id="DSgFrJyKgC6jByb_c58T-51" value="Elasticsearch + Kibana" style="text;html=1;strokeColor=none;fillColor=none;align=center;verticalAlign=middle;whiteSpace=wrap;rounded=0;dashed=1;dashPattern=1 1;fontSize=12;" parent="1" vertex="1">
                    <mxGeometry x="827" y="-60.97" width="139" height="30" as="geometry"/>
                </mxCell>
                <mxCell id="DSgFrJyKgC6jByb_c58T-52" value="" style="shape=image;verticalLabelPosition=bottom;labelBackgroundColor=#ffffff;verticalAlign=top;aspect=fixed;imageAspect=0;image=data:image/png,iVBORw0KGgoAAAANSUhEUgAAAB0AAAAeCAYAAADQBxWhAAACjklEQVRIDe2WXU/TUByHe6FEhwwlvhC9MfHC7zANIRiJfh0VBRJM/ADGC/0IxggyBZ1xOtgY3CEJAoELCXsf7KVjhW3stX3MwWBW1lWlGkj0JE+apj2/J///OaepxCEM6RCcHB1pLbKJNh2g4l89MKp/jVo4Y9jIhkpLo/MUOx9SsQ9QtPcfGDG/dH6I0ovPDWKdVCtVyVx9RNU+SLrtDrIFxPyyfYDM5SG0Qlkn1kvlPHLnAEpb365UTLRCtu0e8tn7qHHFRJopIF8aZOsPSRUhvdCPur511KRynnRH3+6aFuwPsIrYTLL9LmrcpFKUImrvM3A8oeZ4bBmRo/Y8RUvlmre3oqp4klHcqRjuRMQ6qdhunsitH7rdq1TKXJ8ao2dxiu65CcuIHJEncuuHTrpVKXN72kX3jIsu75hlRI7IE7n147/UcmvF8vxSe8WCd/necPOLjxuzn0zw0DM3SfesOT3zfq55x803ktjaE4koH5Mx3BsRUz5shHFvRM1JxvAkovzkyKj0+hQc3hwOT9aYyW1u+YoUimkI34KQA9aaEHZAoBdqJh/8dFnl+Ks4kquANJY15l2OlpEMYSUESycgYIOvTQja0BbsUJPrT4z+d0Uuq7S/XkdyppGG48aMJjnt3CSihGG5A5ZFsDGs2NCWOqGm/4PQndNDkYr2nnKKSlPGVYrqf7vSc+btLakaF98mkFz579KRdaT9OFO0/2jvGUQLWTRgwQbBVrSVK6CVmq+pePI8tMPJ99tIrhzSuNKIK8+x4QyhbBCWWiBog1UDAq1oax1omy91QnGjW9O9p4FcFa9cw5ssN5KqMJ2qUqwWIT8DBT/k9pH3w44fSsG9SN3VUKp74y/c/DvSb4rsQbh7pxqOAAAAAElFTkSuQmCC;" parent="1" vertex="1">
                    <mxGeometry x="920" y="-96.36" width="33.48" height="34.63" as="geometry"/>
                </mxCell>
                <mxCell id="DSgFrJyKgC6jByb_c58T-53" value="" style="endArrow=none;html=1;rounded=0;fontSize=12;strokeWidth=1.5;entryX=0.5;entryY=0;entryDx=0;entryDy=0;strokeColor=#808080;dashed=1;dashPattern=1 1;" parent="1" target="AP62TqUH0sliwpTxDApQ-103" edge="1">
                    <mxGeometry width="50" height="50" relative="1" as="geometry">
                        <mxPoint x="90" y="570" as="sourcePoint"/>
                        <mxPoint x="330" y="500" as="targetPoint"/>
                    </mxGeometry>
                </mxCell>
                <mxCell id="DSgFrJyKgC6jByb_c58T-54" value="" style="endArrow=none;html=1;rounded=0;fontSize=12;strokeWidth=1.5;entryX=0.5;entryY=0;entryDx=0;entryDy=0;strokeColor=#808080;dashed=1;dashPattern=1 1;" parent="1" edge="1">
                    <mxGeometry width="50" height="50" relative="1" as="geometry">
                        <mxPoint x="259.5" y="570" as="sourcePoint"/>
                        <mxPoint x="259.5" y="640" as="targetPoint"/>
                    </mxGeometry>
                </mxCell>
                <mxCell id="DSgFrJyKgC6jByb_c58T-55" value="" style="endArrow=none;html=1;rounded=0;fontSize=12;strokeWidth=1.5;entryX=0.5;entryY=0;entryDx=0;entryDy=0;strokeColor=#808080;dashed=1;dashPattern=1 1;entryPerimeter=0;" parent="1" target="DSgFrJyKgC6jByb_c58T-47" edge="1">
                    <mxGeometry width="50" height="50" relative="1" as="geometry">
                        <mxPoint x="653.5" y="570" as="sourcePoint"/>
                        <mxPoint x="653.5" y="640" as="targetPoint"/>
                    </mxGeometry>
                </mxCell>
                <mxCell id="DSgFrJyKgC6jByb_c58T-56" value="" style="endArrow=none;html=1;rounded=0;fontSize=13;dashed=1;strokeWidth=2;dashPattern=1 1;strokeColor=#808080;" parent="1" edge="1">
                    <mxGeometry width="50" height="50" relative="1" as="geometry">
                        <mxPoint x="-42.5" y="-87" as="sourcePoint"/>
                        <mxPoint x="17.5" y="-87" as="targetPoint"/>
                    </mxGeometry>
                </mxCell>
                <mxCell id="DSgFrJyKgC6jByb_c58T-57" value="Cross-Cutting" style="text;html=1;strokeColor=none;fillColor=none;align=center;verticalAlign=middle;whiteSpace=wrap;rounded=0;dashed=1;dashPattern=1 1;fontSize=12;" parent="1" vertex="1">
                    <mxGeometry x="-42.5" y="-80.11" width="60" height="30" as="geometry"/>
                </mxCell>
                <mxCell id="DSgFrJyKgC6jByb_c58T-58" value="" style="sketch=0;aspect=fixed;html=1;points=[];align=center;image;fontSize=12;image=img/lib/mscae/Security_Center.svg;dashed=1;dashPattern=1 1;strokeColor=#808080;strokeWidth=1.5;fillColor=none;" parent="1" vertex="1">
                    <mxGeometry x="354.4" y="220" width="21.6" height="30" as="geometry"/>
                </mxCell>
                <mxCell id="1iuhlolHwoPZ9ZIJ-BQn-1" value="" style="endArrow=none;html=1;rounded=0;fontFamily=Verdana;fontSize=12;fontColor=#333333;strokeColor=#4D4D4D;strokeWidth=1;exitX=0.5;exitY=0;exitDx=0;exitDy=0;exitPerimeter=0;" parent="1" source="DSgFrJyKgC6jByb_c58T-6" edge="1">
                    <mxGeometry width="50" height="50" relative="1" as="geometry">
                        <mxPoint x="330" y="460" as="sourcePoint"/>
                        <mxPoint x="460" y="240" as="targetPoint"/>
                    </mxGeometry>
                </mxCell>
                <mxCell id="1iuhlolHwoPZ9ZIJ-BQn-3" value="" style="endArrow=none;html=1;rounded=0;fontFamily=Verdana;fontSize=12;fontColor=#333333;strokeColor=#4D4D4D;strokeWidth=1;entryX=0.907;entryY=0.998;entryDx=0;entryDy=0;entryPerimeter=0;exitX=0.471;exitY=0.233;exitDx=0;exitDy=0;exitPerimeter=0;" parent="1" source="DSgFrJyKgC6jByb_c58T-12" target="AP62TqUH0sliwpTxDApQ-16" edge="1">
                    <mxGeometry width="50" height="50" relative="1" as="geometry">
                        <mxPoint x="809" y="260" as="sourcePoint"/>
                        <mxPoint x="380" y="410" as="targetPoint"/>
                    </mxGeometry>
                </mxCell>
                <mxCell id="1iuhlolHwoPZ9ZIJ-BQn-4" value="" style="endArrow=none;html=1;rounded=0;fontFamily=Verdana;fontSize=12;fontColor=#333333;strokeColor=#4D4D4D;strokeWidth=1;exitX=0.5;exitY=0;exitDx=0;exitDy=0;exitPerimeter=0;" parent="1" source="DSgFrJyKgC6jByb_c58T-15" edge="1">
                    <mxGeometry width="50" height="50" relative="1" as="geometry">
                        <mxPoint x="330" y="460" as="sourcePoint"/>
                        <mxPoint x="464" y="600" as="targetPoint"/>
                    </mxGeometry>
                </mxCell>
                <mxCell id="DSgFrJyKgC6jByb_c58T-12" value="" style="strokeWidth=1.5;html=1;shape=mxgraph.flowchart.database;whiteSpace=wrap;strokeColor=#7EA6E0;" parent="1" vertex="1">
                    <mxGeometry x="790" y="263" width="40" height="30" as="geometry"/>
                </mxCell>
            </root>
        </mxGraphModel>
    </diagram>
    <diagram name="Flux-Subscription-UserInCourse" id="H3fHckuH4HCaO6z-Wbd0">
        <mxGraphModel dx="1423" dy="478" grid="1" gridSize="10" guides="1" tooltips="1" connect="1" arrows="1" fold="1" page="1" pageScale="1" pageWidth="827" pageHeight="1169" math="0" shadow="0">
            <root>
                <mxCell id="lcbG7sFd-OeHEF2VmdTJ-0"/>
                <mxCell id="lcbG7sFd-OeHEF2VmdTJ-1" parent="lcbG7sFd-OeHEF2VmdTJ-0"/>
                <mxCell id="M-VvzexB2EAVnOh0-oxj-2" value="" style="rounded=0;whiteSpace=wrap;html=1;fontFamily=Verdana;fontSize=20;strokeColor=#666666;strokeWidth=1;fillColor=#f5f5f5;align=left;verticalAlign=middle;fontColor=#333333;" parent="lcbG7sFd-OeHEF2VmdTJ-1" vertex="1">
                    <mxGeometry x="-780" y="180" width="150" height="470" as="geometry"/>
                </mxCell>
                <mxCell id="lcbG7sFd-OeHEF2VmdTJ-7" value="" style="rounded=0;whiteSpace=wrap;html=1;fillColor=#d5e8d4;strokeColor=#82b366;container=1;" parent="lcbG7sFd-OeHEF2VmdTJ-1" vertex="1">
                    <mxGeometry x="-370" y="260" width="250" height="550" as="geometry">
                        <mxRectangle x="-370" y="260" width="120" height="80" as="alternateBounds"/>
                    </mxGeometry>
                </mxCell>
                <mxCell id="lcbG7sFd-OeHEF2VmdTJ-79" value="&lt;font style=&quot;font-size: 12px&quot;&gt;saveSubscriptionUserInCourse()&lt;/font&gt;" style="rounded=0;whiteSpace=wrap;html=1;fontFamily=Verdana;fontSize=20;strokeWidth=1;align=center;strokeColor=#808080;verticalAlign=top;container=1;" parent="lcbG7sFd-OeHEF2VmdTJ-7" vertex="1">
                    <mxGeometry x="20" y="80" width="210" height="460" as="geometry">
                        <mxRectangle x="20" y="80" width="210" height="50" as="alternateBounds"/>
                    </mxGeometry>
                </mxCell>
                <mxCell id="lcbG7sFd-OeHEF2VmdTJ-117" value="&lt;font style=&quot;font-size: 12px&quot;&gt;Course Verification&lt;/font&gt;" style="rounded=0;whiteSpace=wrap;html=1;fontFamily=Verdana;fontSize=20;strokeWidth=1;align=center;strokeColor=#666666;verticalAlign=top;fillColor=#f5f5f5;fontColor=#333333;" parent="lcbG7sFd-OeHEF2VmdTJ-79" vertex="1">
                    <mxGeometry x="15" y="60" width="180" height="40" as="geometry"/>
                </mxCell>
                <mxCell id="lcbG7sFd-OeHEF2VmdTJ-118" value="&lt;font style=&quot;font-size: 12px&quot;&gt;Subscription Verification&lt;/font&gt;" style="rounded=0;whiteSpace=wrap;html=1;fontFamily=Verdana;fontSize=20;strokeWidth=1;align=center;strokeColor=#666666;verticalAlign=top;fillColor=#f5f5f5;fontColor=#333333;" parent="lcbG7sFd-OeHEF2VmdTJ-79" vertex="1">
                    <mxGeometry x="15" y="135" width="180" height="40" as="geometry"/>
                </mxCell>
                <mxCell id="lcbG7sFd-OeHEF2VmdTJ-119" value="&lt;font style=&quot;font-size: 12px&quot;&gt;User Verification&lt;/font&gt;" style="rounded=0;whiteSpace=wrap;html=1;fontFamily=Verdana;fontSize=20;strokeWidth=1;align=center;strokeColor=#666666;verticalAlign=top;fillColor=#f5f5f5;fontColor=#333333;" parent="lcbG7sFd-OeHEF2VmdTJ-79" vertex="1">
                    <mxGeometry x="15" y="210" width="180" height="40" as="geometry"/>
                </mxCell>
                <mxCell id="lcbG7sFd-OeHEF2VmdTJ-120" value="&lt;font style=&quot;font-size: 12px&quot;&gt;Save Subscription UserInCourse&lt;/font&gt;" style="rounded=0;whiteSpace=wrap;html=1;fontFamily=Verdana;fontSize=20;strokeWidth=1;align=center;strokeColor=#666666;verticalAlign=top;fillColor=#f5f5f5;fontColor=#333333;" parent="lcbG7sFd-OeHEF2VmdTJ-79" vertex="1">
                    <mxGeometry x="2.5" y="290" width="205" height="40" as="geometry"/>
                </mxCell>
                <mxCell id="lcbG7sFd-OeHEF2VmdTJ-121" value="&lt;font style=&quot;font-size: 12px&quot;&gt;Send Subscription UserInCourse&lt;br&gt;To AuthUser&lt;br&gt;&lt;/font&gt;" style="rounded=0;whiteSpace=wrap;html=1;fontFamily=Verdana;fontSize=20;strokeWidth=1;align=center;strokeColor=#666666;verticalAlign=top;fillColor=#f5f5f5;fontColor=#333333;" parent="lcbG7sFd-OeHEF2VmdTJ-79" vertex="1">
                    <mxGeometry x="2.5" y="370" width="205" height="70" as="geometry"/>
                </mxCell>
                <mxCell id="lcbG7sFd-OeHEF2VmdTJ-122" value="" style="endArrow=classic;html=1;rounded=0;fontFamily=Verdana;fontSize=12;fontColor=none;strokeColor=#4D4D4D;strokeWidth=1;exitX=0.5;exitY=1;exitDx=0;exitDy=0;" parent="lcbG7sFd-OeHEF2VmdTJ-79" source="lcbG7sFd-OeHEF2VmdTJ-117" target="lcbG7sFd-OeHEF2VmdTJ-118" edge="1">
                    <mxGeometry width="50" height="50" relative="1" as="geometry">
                        <mxPoint x="380" y="-10" as="sourcePoint"/>
                        <mxPoint x="430" y="-60" as="targetPoint"/>
                    </mxGeometry>
                </mxCell>
                <mxCell id="lcbG7sFd-OeHEF2VmdTJ-123" value="" style="endArrow=classic;html=1;rounded=0;fontFamily=Verdana;fontSize=12;fontColor=none;strokeColor=#4D4D4D;strokeWidth=1;exitX=0.5;exitY=1;exitDx=0;exitDy=0;" parent="lcbG7sFd-OeHEF2VmdTJ-79" source="lcbG7sFd-OeHEF2VmdTJ-118" target="lcbG7sFd-OeHEF2VmdTJ-119" edge="1">
                    <mxGeometry width="50" height="50" relative="1" as="geometry">
                        <mxPoint x="380" y="-10" as="sourcePoint"/>
                        <mxPoint x="430" y="-60" as="targetPoint"/>
                    </mxGeometry>
                </mxCell>
                <mxCell id="lcbG7sFd-OeHEF2VmdTJ-124" value="" style="endArrow=classic;html=1;rounded=0;fontFamily=Verdana;fontSize=12;fontColor=none;strokeColor=#4D4D4D;strokeWidth=1;exitX=0.5;exitY=1;exitDx=0;exitDy=0;entryX=0.5;entryY=0;entryDx=0;entryDy=0;" parent="lcbG7sFd-OeHEF2VmdTJ-79" source="lcbG7sFd-OeHEF2VmdTJ-119" target="lcbG7sFd-OeHEF2VmdTJ-120" edge="1">
                    <mxGeometry width="50" height="50" relative="1" as="geometry">
                        <mxPoint x="380" y="-10" as="sourcePoint"/>
                        <mxPoint x="430" y="-60" as="targetPoint"/>
                    </mxGeometry>
                </mxCell>
                <mxCell id="lcbG7sFd-OeHEF2VmdTJ-125" value="" style="endArrow=classic;html=1;rounded=0;fontFamily=Verdana;fontSize=12;fontColor=none;strokeColor=#4D4D4D;strokeWidth=1;exitX=0.5;exitY=1;exitDx=0;exitDy=0;" parent="lcbG7sFd-OeHEF2VmdTJ-79" source="lcbG7sFd-OeHEF2VmdTJ-120" target="lcbG7sFd-OeHEF2VmdTJ-121" edge="1">
                    <mxGeometry width="50" height="50" relative="1" as="geometry">
                        <mxPoint x="380" y="-10" as="sourcePoint"/>
                        <mxPoint x="430" y="-60" as="targetPoint"/>
                    </mxGeometry>
                </mxCell>
                <mxCell id="lcbG7sFd-OeHEF2VmdTJ-8" value="Course" style="text;html=1;strokeColor=none;fillColor=none;align=center;verticalAlign=middle;whiteSpace=wrap;rounded=0;" parent="lcbG7sFd-OeHEF2VmdTJ-1" vertex="1">
                    <mxGeometry x="-340" y="290" width="60" height="20" as="geometry"/>
                </mxCell>
                <mxCell id="lcbG7sFd-OeHEF2VmdTJ-15" value="Client&lt;br&gt;" style="shape=umlActor;verticalLabelPosition=bottom;verticalAlign=top;html=1;outlineConnect=0;" parent="lcbG7sFd-OeHEF2VmdTJ-1" vertex="1">
                    <mxGeometry x="-560" y="270" width="30" height="60" as="geometry"/>
                </mxCell>
                <mxCell id="lcbG7sFd-OeHEF2VmdTJ-17" value="" style="endArrow=classic;startArrow=classic;html=1;strokeColor=#4D4D4D;" parent="lcbG7sFd-OeHEF2VmdTJ-1" edge="1">
                    <mxGeometry width="50" height="50" relative="1" as="geometry">
                        <mxPoint x="-530" y="300" as="sourcePoint"/>
                        <mxPoint x="-350" y="370" as="targetPoint"/>
                    </mxGeometry>
                </mxCell>
                <mxCell id="lcbG7sFd-OeHEF2VmdTJ-86" value="" style="rounded=0;whiteSpace=wrap;html=1;fillColor=#d5e8d4;strokeColor=#82b366;container=1;" parent="lcbG7sFd-OeHEF2VmdTJ-1" vertex="1">
                    <mxGeometry x="270" y="260" width="252.5" height="550" as="geometry">
                        <mxRectangle x="-40" y="340" width="120" height="80" as="alternateBounds"/>
                    </mxGeometry>
                </mxCell>
                <mxCell id="lcbG7sFd-OeHEF2VmdTJ-87" value="&lt;font style=&quot;font-size: 12px&quot;&gt;getOneUserById()&lt;/font&gt;" style="rounded=0;whiteSpace=wrap;html=1;fontFamily=Verdana;fontSize=20;strokeWidth=1;align=center;strokeColor=#808080;verticalAlign=top;container=1;" parent="lcbG7sFd-OeHEF2VmdTJ-86" vertex="1">
                    <mxGeometry x="20" y="80" width="210" height="40" as="geometry">
                        <mxRectangle x="20" y="80" width="220" height="40" as="alternateBounds"/>
                    </mxGeometry>
                </mxCell>
                <mxCell id="lcbG7sFd-OeHEF2VmdTJ-91" value="&lt;span style=&quot;font-size: 12px&quot;&gt;saveSubscriptionUserInCourse()&lt;/span&gt;" style="rounded=0;whiteSpace=wrap;html=1;fontFamily=Verdana;fontSize=20;strokeWidth=1;align=center;strokeColor=#808080;verticalAlign=top;container=1;" parent="lcbG7sFd-OeHEF2VmdTJ-86" vertex="1">
                    <mxGeometry x="16.25" y="170" width="223.75" height="350" as="geometry">
                        <mxRectangle x="16.25" y="170" width="217.5" height="50" as="alternateBounds"/>
                    </mxGeometry>
                </mxCell>
                <mxCell id="eROfEtdh1QoxExKb772e-6" value="&lt;font style=&quot;font-size: 12px&quot;&gt;User Verification&lt;/font&gt;" style="rounded=0;whiteSpace=wrap;html=1;fontFamily=Verdana;fontSize=20;strokeWidth=1;align=center;strokeColor=#666666;verticalAlign=top;fillColor=#f5f5f5;fontColor=#333333;" parent="lcbG7sFd-OeHEF2VmdTJ-91" vertex="1">
                    <mxGeometry x="21.880000000000003" y="60" width="180" height="40" as="geometry"/>
                </mxCell>
                <mxCell id="eROfEtdh1QoxExKb772e-7" value="&lt;font style=&quot;font-size: 12px&quot;&gt;Subscription Verification&lt;/font&gt;" style="rounded=0;whiteSpace=wrap;html=1;fontFamily=Verdana;fontSize=20;strokeWidth=1;align=center;strokeColor=#666666;verticalAlign=top;fillColor=#f5f5f5;fontColor=#333333;" parent="lcbG7sFd-OeHEF2VmdTJ-91" vertex="1">
                    <mxGeometry x="21.880000000000003" y="139" width="180" height="40" as="geometry"/>
                </mxCell>
                <mxCell id="eROfEtdh1QoxExKb772e-8" value="&lt;font style=&quot;font-size: 12px&quot;&gt;Save Subscription UserInCourse&lt;/font&gt;" style="rounded=0;whiteSpace=wrap;html=1;fontFamily=Verdana;fontSize=20;strokeWidth=1;align=center;strokeColor=#666666;verticalAlign=top;fillColor=#f5f5f5;fontColor=#333333;" parent="lcbG7sFd-OeHEF2VmdTJ-91" vertex="1">
                    <mxGeometry x="9.379999999999995" y="220" width="205" height="40" as="geometry"/>
                </mxCell>
                <mxCell id="eROfEtdh1QoxExKb772e-10" value="" style="endArrow=classic;html=1;rounded=0;fontFamily=Verdana;fontSize=12;fontColor=#333333;strokeColor=#4D4D4D;strokeWidth=1;entryX=0.5;entryY=0;entryDx=0;entryDy=0;" parent="lcbG7sFd-OeHEF2VmdTJ-91" target="eROfEtdh1QoxExKb772e-7" edge="1">
                    <mxGeometry width="50" height="50" relative="1" as="geometry">
                        <mxPoint x="111.75" y="100" as="sourcePoint"/>
                        <mxPoint x="-236.25" y="210" as="targetPoint"/>
                    </mxGeometry>
                </mxCell>
                <mxCell id="eROfEtdh1QoxExKb772e-11" value="" style="endArrow=classic;html=1;rounded=0;fontFamily=Verdana;fontSize=12;fontColor=#333333;strokeColor=#4D4D4D;strokeWidth=1;entryX=0.5;entryY=0;entryDx=0;entryDy=0;exitX=0.5;exitY=1;exitDx=0;exitDy=0;" parent="lcbG7sFd-OeHEF2VmdTJ-91" source="eROfEtdh1QoxExKb772e-7" target="eROfEtdh1QoxExKb772e-8" edge="1">
                    <mxGeometry width="50" height="50" relative="1" as="geometry">
                        <mxPoint x="-286.25" y="260" as="sourcePoint"/>
                        <mxPoint x="-236.25" y="210" as="targetPoint"/>
                    </mxGeometry>
                </mxCell>
                <mxCell id="lcbG7sFd-OeHEF2VmdTJ-93" value="AuthUser" style="text;html=1;strokeColor=none;fillColor=none;align=center;verticalAlign=middle;whiteSpace=wrap;rounded=0;" parent="lcbG7sFd-OeHEF2VmdTJ-1" vertex="1">
                    <mxGeometry x="300" y="290" width="60" height="20" as="geometry"/>
                </mxCell>
                <mxCell id="eROfEtdh1QoxExKb772e-0" value="&lt;font color=&quot;#333333&quot;&gt;EAD-COURSE&lt;/font&gt;" style="strokeWidth=1.5;html=1;shape=mxgraph.flowchart.database;whiteSpace=wrap;strokeColor=#7EA6E0;verticalAlign=middle;" parent="lcbG7sFd-OeHEF2VmdTJ-1" vertex="1">
                    <mxGeometry x="-301" y="880" width="120" height="110" as="geometry"/>
                </mxCell>
                <mxCell id="eROfEtdh1QoxExKb772e-1" value="" style="endArrow=classic;startArrow=classic;html=1;rounded=0;fontFamily=Verdana;fontSize=12;fontColor=#333333;strokeColor=#4D4D4D;strokeWidth=1;exitX=0;exitY=0.5;exitDx=0;exitDy=0;dashed=1;dashPattern=1 2;" parent="lcbG7sFd-OeHEF2VmdTJ-1" source="lcbG7sFd-OeHEF2VmdTJ-117" edge="1">
                    <mxGeometry width="50" height="50" relative="1" as="geometry">
                        <mxPoint y="690" as="sourcePoint"/>
                        <mxPoint x="-300" y="964" as="targetPoint"/>
                        <Array as="points">
                            <mxPoint x="-440" y="420"/>
                            <mxPoint x="-440" y="964"/>
                        </Array>
                    </mxGeometry>
                </mxCell>
                <mxCell id="eROfEtdh1QoxExKb772e-2" value="" style="endArrow=classic;startArrow=classic;html=1;rounded=0;fontFamily=Verdana;fontSize=12;fontColor=#333333;strokeColor=#4D4D4D;strokeWidth=1;exitX=0;exitY=0.5;exitDx=0;exitDy=0;dashed=1;dashPattern=1 2;" parent="lcbG7sFd-OeHEF2VmdTJ-1" source="lcbG7sFd-OeHEF2VmdTJ-118" edge="1">
                    <mxGeometry width="50" height="50" relative="1" as="geometry">
                        <mxPoint x="-335" y="490" as="sourcePoint"/>
                        <mxPoint x="-300" y="943" as="targetPoint"/>
                        <Array as="points">
                            <mxPoint x="-420" y="495"/>
                            <mxPoint x="-420" y="943"/>
                        </Array>
                    </mxGeometry>
                </mxCell>
                <mxCell id="eROfEtdh1QoxExKb772e-3" value="" style="endArrow=classic;startArrow=classic;html=1;rounded=0;fontFamily=Verdana;fontSize=12;fontColor=#333333;strokeColor=#4D4D4D;strokeWidth=1;entryX=0;entryY=0.5;entryDx=0;entryDy=0;dashed=1;dashPattern=1 2;" parent="lcbG7sFd-OeHEF2VmdTJ-1" target="lcbG7sFd-OeHEF2VmdTJ-120" edge="1">
                    <mxGeometry width="50" height="50" relative="1" as="geometry">
                        <mxPoint x="-300" y="919" as="sourcePoint"/>
                        <mxPoint x="50" y="640" as="targetPoint"/>
                        <Array as="points">
                            <mxPoint x="-390" y="919"/>
                            <mxPoint x="-390" y="650"/>
                        </Array>
                    </mxGeometry>
                </mxCell>
                <mxCell id="eROfEtdh1QoxExKb772e-4" value="&lt;font color=&quot;#333333&quot;&gt;EAD-AUTHUSER&lt;/font&gt;" style="strokeWidth=1.5;html=1;shape=mxgraph.flowchart.database;whiteSpace=wrap;strokeColor=#7EA6E0;verticalAlign=middle;" parent="lcbG7sFd-OeHEF2VmdTJ-1" vertex="1">
                    <mxGeometry x="335" y="880" width="120" height="110" as="geometry"/>
                </mxCell>
                <mxCell id="eROfEtdh1QoxExKb772e-5" value="" style="endArrow=classic;startArrow=classic;html=1;rounded=0;fontFamily=Verdana;fontSize=12;fontColor=#333333;strokeColor=#4D4D4D;strokeWidth=1;exitX=1;exitY=0.5;exitDx=0;exitDy=0;entryX=0;entryY=0.5;entryDx=0;entryDy=0;" parent="lcbG7sFd-OeHEF2VmdTJ-1" source="lcbG7sFd-OeHEF2VmdTJ-119" target="lcbG7sFd-OeHEF2VmdTJ-87" edge="1">
                    <mxGeometry width="50" height="50" relative="1" as="geometry">
                        <mxPoint y="690" as="sourcePoint"/>
                        <mxPoint x="50" y="640" as="targetPoint"/>
                        <Array as="points">
                            <mxPoint x="70" y="570"/>
                            <mxPoint x="70" y="360"/>
                        </Array>
                    </mxGeometry>
                </mxCell>
                <mxCell id="eROfEtdh1QoxExKb772e-12" value="" style="endArrow=classic;startArrow=classic;html=1;rounded=0;fontFamily=Verdana;fontSize=12;fontColor=#333333;strokeColor=#4D4D4D;strokeWidth=1;entryX=1;entryY=0.5;entryDx=0;entryDy=0;exitX=1;exitY=0.85;exitDx=0;exitDy=0;exitPerimeter=0;dashed=1;dashPattern=1 2;" parent="lcbG7sFd-OeHEF2VmdTJ-1" source="eROfEtdh1QoxExKb772e-4" target="lcbG7sFd-OeHEF2VmdTJ-87" edge="1">
                    <mxGeometry width="50" height="50" relative="1" as="geometry">
                        <mxPoint y="690" as="sourcePoint"/>
                        <mxPoint x="50" y="640" as="targetPoint"/>
                        <Array as="points">
                            <mxPoint x="620" y="974"/>
                            <mxPoint x="620" y="360"/>
                        </Array>
                    </mxGeometry>
                </mxCell>
                <mxCell id="eROfEtdh1QoxExKb772e-13" value="" style="endArrow=classic;startArrow=classic;html=1;rounded=0;fontFamily=Verdana;fontSize=12;fontColor=#333333;strokeColor=#4D4D4D;strokeWidth=1;entryX=1;entryY=0.5;entryDx=0;entryDy=0;exitX=0.992;exitY=0.727;exitDx=0;exitDy=0;exitPerimeter=0;dashed=1;dashPattern=1 2;" parent="lcbG7sFd-OeHEF2VmdTJ-1" source="eROfEtdh1QoxExKb772e-4" target="eROfEtdh1QoxExKb772e-6" edge="1">
                    <mxGeometry width="50" height="50" relative="1" as="geometry">
                        <mxPoint y="690" as="sourcePoint"/>
                        <mxPoint x="50" y="640" as="targetPoint"/>
                        <Array as="points">
                            <mxPoint x="600" y="960"/>
                            <mxPoint x="600" y="510"/>
                        </Array>
                    </mxGeometry>
                </mxCell>
                <mxCell id="eROfEtdh1QoxExKb772e-14" value="" style="endArrow=classic;startArrow=classic;html=1;rounded=0;fontFamily=Verdana;fontSize=12;fontColor=#333333;strokeColor=#4D4D4D;strokeWidth=1;entryX=1;entryY=0.5;entryDx=0;entryDy=0;exitX=1.008;exitY=0.573;exitDx=0;exitDy=0;exitPerimeter=0;dashed=1;dashPattern=1 2;" parent="lcbG7sFd-OeHEF2VmdTJ-1" source="eROfEtdh1QoxExKb772e-4" target="eROfEtdh1QoxExKb772e-7" edge="1">
                    <mxGeometry width="50" height="50" relative="1" as="geometry">
                        <mxPoint y="690" as="sourcePoint"/>
                        <mxPoint x="50" y="640" as="targetPoint"/>
                        <Array as="points">
                            <mxPoint x="580" y="943"/>
                            <mxPoint x="580" y="589"/>
                        </Array>
                    </mxGeometry>
                </mxCell>
                <mxCell id="eROfEtdh1QoxExKb772e-15" value="" style="endArrow=classic;startArrow=classic;html=1;rounded=0;fontFamily=Verdana;fontSize=12;fontColor=#333333;strokeColor=#4D4D4D;strokeWidth=1;entryX=1;entryY=0.5;entryDx=0;entryDy=0;exitX=1.008;exitY=0.391;exitDx=0;exitDy=0;exitPerimeter=0;dashed=1;dashPattern=1 2;" parent="lcbG7sFd-OeHEF2VmdTJ-1" source="eROfEtdh1QoxExKb772e-4" target="eROfEtdh1QoxExKb772e-8" edge="1">
                    <mxGeometry width="50" height="50" relative="1" as="geometry">
                        <mxPoint y="690" as="sourcePoint"/>
                        <mxPoint x="50" y="640" as="targetPoint"/>
                        <Array as="points">
                            <mxPoint x="560" y="923"/>
                            <mxPoint x="560" y="670"/>
                        </Array>
                    </mxGeometry>
                </mxCell>
                <mxCell id="eROfEtdh1QoxExKb772e-16" value="" style="endArrow=classic;startArrow=classic;html=1;rounded=0;fontFamily=Verdana;fontSize=12;fontColor=#333333;strokeColor=#4D4D4D;strokeWidth=1;exitX=1;exitY=0.5;exitDx=0;exitDy=0;" parent="lcbG7sFd-OeHEF2VmdTJ-1" source="lcbG7sFd-OeHEF2VmdTJ-121" edge="1">
                    <mxGeometry width="50" height="50" relative="1" as="geometry">
                        <mxPoint y="690" as="sourcePoint"/>
                        <mxPoint x="290" y="455" as="targetPoint"/>
                        <Array as="points">
                            <mxPoint x="150" y="745"/>
                            <mxPoint x="150" y="605"/>
                            <mxPoint x="150" y="455"/>
                        </Array>
                    </mxGeometry>
                </mxCell>
                <mxCell id="qBZEeVrSa37X5WChv7xC-0" value="&lt;span style=&quot;color: rgb(0 , 0 , 0) ; font-family: &amp;#34;helvetica&amp;#34;&quot;&gt;Synchronous&amp;nbsp;&lt;/span&gt;&lt;span style=&quot;color: rgb(0 , 0 , 0) ; font-family: &amp;#34;helvetica&amp;#34;&quot;&gt;Communication&lt;/span&gt;&amp;nbsp;(GET)" style="text;html=1;strokeColor=none;fillColor=none;align=center;verticalAlign=middle;whiteSpace=wrap;rounded=0;fontFamily=Verdana;fontSize=12;fontColor=#333333;" parent="lcbG7sFd-OeHEF2VmdTJ-1" vertex="1">
                    <mxGeometry x="-80" y="570" width="190" height="30" as="geometry"/>
                </mxCell>
                <mxCell id="qBZEeVrSa37X5WChv7xC-1" value="&lt;span style=&quot;color: rgb(0 , 0 , 0) ; font-family: &amp;#34;helvetica&amp;#34;&quot;&gt;Synchronous&amp;nbsp;&lt;/span&gt;&lt;span style=&quot;color: rgb(0 , 0 , 0) ; font-family: &amp;#34;helvetica&amp;#34;&quot;&gt;Communication&lt;/span&gt;&amp;nbsp;(POST)" style="text;html=1;strokeColor=none;fillColor=none;align=center;verticalAlign=middle;whiteSpace=wrap;rounded=0;fontFamily=Verdana;fontSize=12;fontColor=#333333;" parent="lcbG7sFd-OeHEF2VmdTJ-1" vertex="1">
                    <mxGeometry x="-70" y="750" width="190" height="30" as="geometry"/>
                </mxCell>
                <mxCell id="yALnJEfask1P_LoQ8ini-0" value="" style="rounded=0;whiteSpace=wrap;html=1;fillColor=#d5e8d4;strokeColor=#82b366;" parent="lcbG7sFd-OeHEF2VmdTJ-1" vertex="1">
                    <mxGeometry x="-748" y="260" width="75" height="54.89" as="geometry"/>
                </mxCell>
                <mxCell id="yALnJEfask1P_LoQ8ini-1" value="&lt;div&gt;Microservices Business&lt;/div&gt;&lt;div&gt;Spring Boot&lt;/div&gt;" style="text;html=1;strokeColor=none;fillColor=none;align=center;verticalAlign=middle;whiteSpace=wrap;rounded=0;" parent="lcbG7sFd-OeHEF2VmdTJ-1" vertex="1">
                    <mxGeometry x="-797" y="322.06" width="179" height="20" as="geometry"/>
                </mxCell>
                <mxCell id="yALnJEfask1P_LoQ8ini-4" value="" style="endArrow=classic;startArrow=classic;html=1;rounded=0;fontFamily=Verdana;fontSize=12;fontColor=#333333;strokeColor=#4D4D4D;strokeWidth=1;" parent="lcbG7sFd-OeHEF2VmdTJ-1" edge="1">
                    <mxGeometry width="50" height="50" relative="1" as="geometry">
                        <mxPoint x="-747" y="390" as="sourcePoint"/>
                        <mxPoint x="-667" y="390" as="targetPoint"/>
                    </mxGeometry>
                </mxCell>
                <mxCell id="yALnJEfask1P_LoQ8ini-5" value="Synchronous&lt;br&gt;&amp;nbsp;Communication" style="text;html=1;strokeColor=none;fillColor=none;align=center;verticalAlign=middle;whiteSpace=wrap;rounded=0;" parent="lcbG7sFd-OeHEF2VmdTJ-1" vertex="1">
                    <mxGeometry x="-761" y="400" width="107" height="20" as="geometry"/>
                </mxCell>
                <mxCell id="yALnJEfask1P_LoQ8ini-6" value="" style="endArrow=classic;startArrow=classic;html=1;rounded=0;fontFamily=Verdana;fontSize=12;fontColor=#333333;strokeColor=#4D4D4D;strokeWidth=1;dashed=1;dashPattern=1 2;" parent="lcbG7sFd-OeHEF2VmdTJ-1" edge="1">
                    <mxGeometry width="50" height="50" relative="1" as="geometry">
                        <mxPoint x="-747" y="460" as="sourcePoint"/>
                        <mxPoint x="-667" y="460" as="targetPoint"/>
                    </mxGeometry>
                </mxCell>
                <mxCell id="yALnJEfask1P_LoQ8ini-7" value="Transaction with &lt;br&gt;Databases" style="text;html=1;strokeColor=none;fillColor=none;align=center;verticalAlign=middle;whiteSpace=wrap;rounded=0;" parent="lcbG7sFd-OeHEF2VmdTJ-1" vertex="1">
                    <mxGeometry x="-797" y="473" width="179" height="20" as="geometry"/>
                </mxCell>
                <mxCell id="yALnJEfask1P_LoQ8ini-8" value="&lt;font color=&quot;#333333&quot;&gt;DB&lt;/font&gt;" style="strokeWidth=1.5;html=1;shape=mxgraph.flowchart.database;whiteSpace=wrap;strokeColor=#7EA6E0;verticalAlign=middle;" parent="lcbG7sFd-OeHEF2VmdTJ-1" vertex="1">
                    <mxGeometry x="-734.5" y="530" width="54" height="40" as="geometry"/>
                </mxCell>
                <mxCell id="yALnJEfask1P_LoQ8ini-9" value="Database SQL" style="text;html=1;strokeColor=none;fillColor=none;align=center;verticalAlign=middle;whiteSpace=wrap;rounded=0;" parent="lcbG7sFd-OeHEF2VmdTJ-1" vertex="1">
                    <mxGeometry x="-800" y="580" width="179" height="20" as="geometry"/>
                </mxCell>
                <mxCell id="yALnJEfask1P_LoQ8ini-10" value="&lt;b&gt;LEGEND&lt;/b&gt;" style="text;html=1;strokeColor=none;fillColor=none;align=left;verticalAlign=middle;whiteSpace=wrap;rounded=0;" parent="lcbG7sFd-OeHEF2VmdTJ-1" vertex="1">
                    <mxGeometry x="-763" y="190" width="90" height="20" as="geometry"/>
                </mxCell>
                <mxCell id="yALnJEfask1P_LoQ8ini-12" value="&lt;b&gt;&lt;font color=&quot;#4d4d4d&quot;&gt;Flux Subscription UserInCourse&lt;/font&gt;&lt;/b&gt;" style="text;html=1;strokeColor=none;fillColor=none;align=left;verticalAlign=middle;whiteSpace=wrap;rounded=0;fontSize=20;fontColor=#333333;" parent="lcbG7sFd-OeHEF2VmdTJ-1" vertex="1">
                    <mxGeometry x="-797" y="50" width="340" height="20" as="geometry"/>
                </mxCell>
            </root>
        </mxGraphModel>
    </diagram>
</mxfile>